<svg xmlns="http://www.w3.org/2000/svg" width="40" height="56" viewBox="0 0 40 56">
  <defs>
    <linearGradient id="ic_pin_black-a" x1="38.846%" x2="61.251%" y1="-.166%" y2="100.506%">
      <stop offset="21%"/>
      <stop offset="36%" stop-color="#0B0B0B"/>
      <stop offset="59%" stop-color="#262626"/>
      <stop offset="85%" stop-color="#B2B2B2"/>
      <stop offset="100%" stop-color="#FFF"/>
    </linearGradient>
    <linearGradient id="ic_pin_black-b" x1="38.844%" x2="61.329%" y1="-.164%" y2="100.509%">
      <stop offset="0%"/>
      <stop offset="56%" stop-color="#1A1A1A"/>
      <stop offset="61%" stop-color="#202020"/>
      <stop offset="71%" stop-color="#262626"/>
      <stop offset="84%" stop-color="#FFF"/>
      <stop offset="89%" stop-color="#FFF"/>
      <stop offset="100%" stop-color="gray"/>
    </linearGradient>
    <linearGradient id="ic_pin_black-c" x1="76.366%" x2="32.757%" y1="-3.831%" y2="94.611%">
      <stop offset="0%" stop-opacity="0"/>
      <stop offset="61%" stop-color="#1A1A1A"/>
      <stop offset="67%" stop-color="#1D1D1D"/>
      <stop offset="71%" stop-color="#262626"/>
      <stop offset="87%" stop-color="#EEE"/>
      <stop offset="100%" stop-color="#DCDCDC" stop-opacity="0"/>
    </linearGradient>
    <linearGradient id="ic_pin_black-d" x1="64.723%" x2="35.401%" y1="100.205%" y2="-.591%">
      <stop offset="4%"/>
      <stop offset="19%"/>
      <stop offset="29%" stop-color="#343434"/>
      <stop offset="45%" stop-color="#8A8A8A"/>
      <stop offset="58%" stop-color="#C9C9C9"/>
      <stop offset="68%" stop-color="#F0F0F0"/>
      <stop offset="73%" stop-color="#FFF"/>
      <stop offset="100%" stop-color="#4D4D4D"/>
    </linearGradient>
    <linearGradient id="ic_pin_black-e" x1="35.689%" x2="63.466%" y1="112.907%" y2="-9.248%">
      <stop offset="0%" stop-color="#FFF" stop-opacity="0"/>
      <stop offset="11%" stop-color="#FFF" stop-opacity=".25"/>
      <stop offset="28%" stop-color="#FFF" stop-opacity=".65"/>
      <stop offset="40%" stop-color="#FFF" stop-opacity=".9"/>
      <stop offset="46%" stop-color="#FFF"/>
      <stop offset="81%" stop-color="#BCBCBC" stop-opacity=".34"/>
      <stop offset="100%" stop-color="#9A9A9A" stop-opacity="0"/>
    </linearGradient>
    <linearGradient id="ic_pin_black-f" x1=".001%" x2="100.001%" y1="50.004%" y2="50.004%">
      <stop offset="0%"/>
      <stop offset="3%" stop-color="#101010" stop-opacity=".94"/>
      <stop offset="13%" stop-color="#3F3F3F" stop-opacity=".74"/>
      <stop offset="24%" stop-color="#616161" stop-opacity=".6"/>
      <stop offset="36%" stop-color="#767676" stop-opacity=".52"/>
      <stop offset="50%" stop-color="#7C7C7C" stop-opacity=".5"/>
      <stop offset="100%"/>
    </linearGradient>
    <linearGradient id="ic_pin_black-g" x1="40.455%" x2="59.972%" y1="22.549%" y2="78.377%">
      <stop offset="24%" stop-opacity="0"/>
      <stop offset="44%"/>
      <stop offset="69%" stop-opacity=".74"/>
      <stop offset="100%" stop-opacity="0"/>
    </linearGradient>
    <linearGradient id="ic_pin_black-h" x1="75.237%" x2="13.646%" y1="-9.656%" y2="103.921%">
      <stop offset="0%" stop-color="#FFF" stop-opacity="0"/>
      <stop offset="5%" stop-color="#FFF" stop-opacity=".11"/>
      <stop offset="16%" stop-color="#FFF" stop-opacity=".39"/>
      <stop offset="31%" stop-color="#FFF" stop-opacity=".84"/>
      <stop offset="37%" stop-color="#FFF"/>
      <stop offset="100%" stop-color="gray" stop-opacity="0"/>
    </linearGradient>
    <linearGradient id="ic_pin_black-i" x1="0%" x2="99.998%" y1="49.994%" y2="49.994%">
      <stop offset="0%"/>
      <stop offset="9%" stop-opacity=".8"/>
      <stop offset="100%" stop-opacity="0"/>
    </linearGradient>
    <linearGradient id="ic_pin_black-j" x1="50.005%" x2="50.005%" y1="-.001%" y2="100%">
      <stop offset="0%"/>
      <stop offset="100%" stop-opacity="0"/>
    </linearGradient>
    <linearGradient id="ic_pin_black-k" x1="55.943%" x2="42.818%" y1="27.59%" y2="76.473%">
      <stop offset="5%" stop-opacity="0"/>
      <stop offset="26%"/>
      <stop offset="53%" stop-opacity=".85"/>
      <stop offset="61%" stop-color="#050505" stop-opacity=".84"/>
      <stop offset="69%" stop-color="#161616" stop-opacity=".79"/>
      <stop offset="74%" stop-color="#262626" stop-opacity=".74"/>
      <stop offset="76%" stop-color="#1C1C1C" stop-opacity=".54"/>
      <stop offset="79%" stop-color="#0C0C0C" stop-opacity=".23"/>
      <stop offset="85%" stop-color="#030303" stop-opacity=".05"/>
      <stop offset="100%" stop-opacity="0"/>
    </linearGradient>
    <linearGradient id="ic_pin_black-l" x1="63.077%" x2="36.812%" y1="110.107%" y2="-9.583%">
      <stop offset="0%" stop-color="#FFF" stop-opacity="0"/>
      <stop offset="17%" stop-color="#C8C8C8" stop-opacity=".32"/>
      <stop offset="46%" stop-color="#565656"/>
      <stop offset="47%" stop-color="#404040"/>
      <stop offset="60%" stop-color="#464646" stop-opacity=".93"/>
      <stop offset="74%" stop-color="#595959" stop-opacity=".72"/>
      <stop offset="88%" stop-color="#777" stop-opacity=".37"/>
      <stop offset="97%" stop-color="#939393" stop-opacity=".05"/>
      <stop offset="100%" stop-color="#9A9A9A" stop-opacity="0"/>
    </linearGradient>
    <linearGradient id="ic_pin_black-m" x1=".019%" x2="100.005%" y1="49.997%" y2="49.997%">
      <stop offset="0%"/>
      <stop offset="31%" stop-color="#060606"/>
      <stop offset="71%" stop-color="#151515"/>
      <stop offset="100%" stop-color="#262626"/>
    </linearGradient>
    <linearGradient id="ic_pin_black-n" x1="100%" x2="-.014%" y1="49.997%" y2="49.997%">
      <stop offset="0%"/>
      <stop offset="31%" stop-color="#060606"/>
      <stop offset="71%" stop-color="#151515"/>
      <stop offset="100%" stop-color="#262626"/>
    </linearGradient>
    <linearGradient id="ic_pin_black-o" x1=".005%" x2="100.005%" y1="49.99%" y2="49.99%">
      <stop offset="0%" stop-color="#B2B2B2"/>
      <stop offset="1%" stop-color="#B0B0B0"/>
      <stop offset="26%" stop-color="#666"/>
      <stop offset="44%" stop-color="#383838"/>
      <stop offset="53%" stop-color="#262626"/>
    </linearGradient>
    <linearGradient id="ic_pin_black-p" x1="100.027%" x2="0%" y1="50%" y2="50%">
      <stop offset="0%" stop-color="#B2B2B2"/>
      <stop offset="1%" stop-color="#B0B0B0"/>
      <stop offset="26%" stop-color="#666"/>
      <stop offset="44%" stop-color="#383838"/>
      <stop offset="53%" stop-color="#262626"/>
    </linearGradient>
    <linearGradient id="ic_pin_black-q" x1="-.003%" x2="99.996%" y1="49.999%" y2="49.999%">
      <stop offset="0%"/>
      <stop offset="3%" stop-color="#171717"/>
      <stop offset="10%" stop-color="#3C3C3C"/>
      <stop offset="16%" stop-color="#5B5B5B"/>
      <stop offset="23%" stop-color="#737373"/>
      <stop offset="30%" stop-color="#848484"/>
      <stop offset="38%" stop-color="#8E8E8E"/>
      <stop offset="48%" stop-color="#919191"/>
      <stop offset="50%" stop-color="#FFF" stop-opacity=".77"/>
      <stop offset="50%" stop-opacity=".9"/>
      <stop offset="52%" stop-color="#090909" stop-opacity=".92"/>
      <stop offset="55%" stop-color="#212121" stop-opacity=".99"/>
      <stop offset="55%" stop-color="#262626"/>
      <stop offset="55%" stop-color="#272727"/>
      <stop offset="56%" stop-color="#323232"/>
      <stop offset="57%" stop-color="#393939"/>
      <stop offset="59%" stop-color="#3B3B3B"/>
      <stop offset="100%"/>
    </linearGradient>
    <linearGradient id="ic_pin_black-r" x1="8.189%" x2="91.809%" y1="61.949%" y2="38.055%">
      <stop offset="0%"/>
      <stop offset="55%" stop-color="#181818"/>
      <stop offset="100%" stop-color="#262626"/>
    </linearGradient>
    <linearGradient id="ic_pin_black-s" x1=".002%" x2="100%" y1="49.999%" y2="49.999%">
      <stop offset="0%"/>
      <stop offset="3%" stop-color="#282828"/>
      <stop offset="7%" stop-color="#4F4F4F"/>
      <stop offset="11%" stop-color="#717171"/>
      <stop offset="15%" stop-color="#8D8D8D"/>
      <stop offset="20%" stop-color="#A4A4A4"/>
      <stop offset="25%" stop-color="#B6B6B6"/>
      <stop offset="31%" stop-color="#C3C3C3"/>
      <stop offset="40%" stop-color="#CACACA"/>
      <stop offset="61%" stop-color="#CCC"/>
      <stop offset="82%" stop-color="#FFF"/>
    </linearGradient>
    <linearGradient id="ic_pin_black-t" x1="42.571%" x2="57.453%" y1="20.974%" y2="79.121%">
      <stop offset="0%"/>
      <stop offset="3%"/>
      <stop offset="34%"/>
      <stop offset="42%" stop-color="#090909"/>
      <stop offset="57%" stop-color="#171717"/>
      <stop offset="81%"/>
    </linearGradient>
    <linearGradient id="ic_pin_black-u" x1="99.997%" x2="-.006%" y1="50.001%" y2="50.001%">
      <stop offset="0%"/>
      <stop offset="4%" stop-color="#1F1F1F"/>
      <stop offset="8%" stop-color="#3E3E3E"/>
      <stop offset="13%" stop-color="#545454"/>
      <stop offset="17%" stop-color="#616161"/>
      <stop offset="21%" stop-color="#666"/>
      <stop offset="24%" stop-color="#737373"/>
      <stop offset="35%" stop-color="#9E9E9E"/>
      <stop offset="45%" stop-color="#C1C1C1"/>
      <stop offset="56%" stop-color="#DCDCDC"/>
      <stop offset="67%" stop-color="#F0F0F0"/>
      <stop offset="78%" stop-color="#FBFBFB"/>
      <stop offset="89%" stop-color="#FFF"/>
      <stop offset="100%" stop-color="#ADADAD"/>
    </linearGradient>
    <linearGradient id="ic_pin_black-v" x1="27.46%" x2="72.581%" y1=".743%" y2="98.499%">
      <stop offset="0%" stop-color="#F2F2F2"/>
      <stop offset="97%" stop-color="#262626"/>
    </linearGradient>
    <linearGradient id="ic_pin_black-w" x1="-.001%" x2="99.999%" y1="50.011%" y2="50.011%">
      <stop offset="0%"/>
      <stop offset="24%" stop-color="#262626"/>
      <stop offset="50%" stop-color="#565656"/>
      <stop offset="100%"/>
    </linearGradient>
    <linearGradient id="ic_pin_black-x" x1="50.001%" x2="50.001%" y1="100.002%" y2="0%">
      <stop offset="12%" stop-color="#333"/>
      <stop offset="18%" stop-color="#3C3C3C"/>
      <stop offset="27%" stop-color="#555"/>
      <stop offset="39%" stop-color="#7E7E7E"/>
      <stop offset="53%" stop-color="#B7B7B7"/>
      <stop offset="67%" stop-color="#F8F8F8"/>
      <stop offset="73%" stop-color="#FFF"/>
    </linearGradient>
    <linearGradient id="ic_pin_black-y" x1="4.611%" x2="98.967%" y1="68.359%" y2="11.211%">
      <stop offset="0%" stop-color="#4D4D4D"/>
      <stop offset="21%" stop-color="#999"/>
      <stop offset="37%" stop-color="#F2F2F2"/>
      <stop offset="63%" stop-color="#F0F0F0"/>
      <stop offset="73%" stop-color="#E9E9E9"/>
      <stop offset="80%" stop-color="#DEDEDE"/>
      <stop offset="85%" stop-color="#CDCDCD"/>
      <stop offset="90%" stop-color="#B7B7B7"/>
      <stop offset="94%" stop-color="#9C9C9C"/>
      <stop offset="97%" stop-color="#7D7D7D"/>
      <stop offset="98%" stop-color="#797979"/>
      <stop offset="100%" stop-color="#505050"/>
      <stop offset="100%" stop-color="#4D4D4D"/>
    </linearGradient>
    <linearGradient id="ic_pin_black-z" x1="50%" x2="50%" y1="100%" y2="0%">
      <stop offset="36%" stop-color="#F2F2F2" stop-opacity="0"/>
      <stop offset="43%" stop-color="#E0E0E0" stop-opacity=".15"/>
      <stop offset="56%" stop-color="#B0B0B0" stop-opacity=".54"/>
      <stop offset="70%" stop-color="#797979"/>
      <stop offset="79%" stop-color="#515151"/>
      <stop offset="87%" stop-color="#333"/>
      <stop offset="95%" stop-color="#212121"/>
      <stop offset="100%" stop-color="#1A1A1A"/>
    </linearGradient>
    <linearGradient id="ic_pin_black-A" x1="72.54%" x2="27.418%" y1=".743%" y2="98.499%">
      <stop offset="0%" stop-color="#E6E6E6"/>
      <stop offset="100%" stop-color="#333"/>
    </linearGradient>
  </defs>
  <g fill="none" fill-rule="evenodd">
    <path fill="#101010" d="M34.94,33.6532301 L20,56 L5.05,33.6532301 C2.11,28.6160887 0,25.1561345 0,19.7148389 C0,8.82663405 8.954305,0 20,0 C31.045695,0 40,8.82663405 40,19.7148389 C40,25.1561345 37.49,29.4046823 34.94,33.6532301 Z"/>
    <g transform="translate(7 8)">
      <path fill="#000" fill-rule="nonzero" d="M23.4918928,3.24640704 C21.4240871,1.02660804 18.0864405,0.00881909548 12.9973869,0.00413735343 L12.9962982,0.00413735343 C7.90735343,0.0089279732 4.56916248,1.02660804 2.50179229,3.24640704 C0.966616415,4.89394472 0.00206867672,7.17275544 0.00206867672,10.2660804 C0.00206867672,11.9746985 0.424840871,16.3305695 3.86178392,18.5775879 C5.91957286,19.9234255 8.57695142,20.7936851 12.9966248,20.7996734 L12.9977136,20.7996734 C17.4170603,20.7936851 20.0738945,19.9234255 22.1325544,18.5775879 C25.5694975,16.3302429 25.9922697,11.9746985 25.9922697,10.2660804 C25.9916164,7.18244556 25.0206449,4.88752094 23.4918928,3.24640704 Z M12.9968425,19.0086348 C11.3240452,19.0061307 9.96688442,18.8692714 8.84762144,18.5903266 C7.75252931,18.3174791 6.84067839,17.8966667 6.05980737,17.3039363 C5.47644054,16.8611307 4.96896147,16.3012814 4.55152429,15.640067 C4.19494975,15.0754271 3.90010888,14.4315243 3.67505863,13.724799 C3.21777219,12.2915327 3.16899497,10.9871776 3.16899497,10.4929816 C3.16899497,9.76556951 3.21820771,9.07376047 3.31543551,8.43606365 C4.51178392,9.08159966 5.64748744,9.40507538 6.65014238,9.6908794 L6.8831407,9.75740369 C8.27971524,10.1577471 9.39005025,10.684933 10.2775126,11.368794 C10.7852865,11.7581064 11.2343042,12.2185651 11.6107203,12.7359715 C12.0094305,13.2870017 12.3285511,13.9152261 12.559263,14.6031156 C12.6644389,14.9167923 12.7744054,15.111139 12.9969514,15.111139 C13.2194975,15.111139 13.329464,14.9166834 13.4346399,14.6031156 C13.6653518,13.9152261 13.9844724,13.2871106 14.3831826,12.7359715 C14.7596009,12.218567 15.2086184,11.7581087 15.7163903,11.368794 C16.6038526,10.6846064 17.7141876,10.1573116 19.1107621,9.75740369 L19.3437605,9.6908794 C20.3463065,9.40518425 21.4821189,9.08116415 22.6783585,8.43606365 C22.7755863,9.07365159 22.824799,9.76546064 22.824799,10.4929816 C22.824799,10.9887018 22.7756951,12.2959966 22.3213484,13.724799 C22.0967337,14.4310888 21.8020017,15.0754271 21.4452094,15.640067 C21.0273367,16.3012814 20.5188777,16.8611307 19.9338777,17.3039363 C19.1515913,17.8961223 18.2394137,18.3164992 17.1454104,18.5895645 C16.0252764,18.8690536 14.6683333,19.0061307 12.9971692,19.0086348 L12.9968425,19.0086348 Z M12.9968425,11.3505025 C12.9565578,11.3505025 12.8820854,11.3017253 12.7563317,11.0694891 C12.2167337,10.0727136 11.4967253,9.21497487 10.6161223,8.52011725 C9.94946399,7.99369347 9.18438023,7.55752931 8.34210218,7.22371022 C8.21805416,7.17457007 8.09338917,7.12535734 7.9681072,7.07607203 C6.87083752,6.64382747 5.7361139,6.19688442 4.68,5.58673367 C4.56175879,5.51835846 4.44536851,5.44835008 4.33387772,5.37855946 C4.54416689,5.01060376 4.78668063,4.66202671 5.05856784,4.3369263 C5.45202069,3.86788152 5.90895192,3.45598746 6.41616415,3.1131407 C6.93213568,2.76386097 7.52170854,2.46978224 8.16844221,2.23907035 C9.48749581,1.76860972 11.0666583,1.53887772 12.9961893,1.53691792 C14.9264824,1.53887772 16.5056449,1.76860972 17.8246985,2.23907035 C18.4714322,2.46978224 19.061005,2.76386097 19.5769765,3.1131407 C20.0841914,3.4559841 20.5411231,3.86787855 20.9345729,4.3369263 C21.2065713,4.66201508 21.4491945,5.01059237 21.6595896,5.37855946 C21.5479899,5.44835008 21.4315997,5.51835846 21.3134673,5.58673367 C20.2573534,6.19644891 19.1228476,6.64382747 18.0253601,7.07607203 C17.9001508,7.12535734 17.7754858,7.17457007 17.6513652,7.22371022 C16.8089782,7.55752931 16.0438945,7.99369347 15.3772362,8.52011725 C14.496742,9.21497487 13.7767337,10.0727136 13.2371357,11.0694891 C13.1113819,11.3017253 13.0370184,11.3505025 12.9966248,11.3505025 L12.9968425,11.3505025 Z"/>
      <path fill="#FFF" fill-rule="nonzero" d="M25.2456951,6.24185092 C24.8319598,5.13184255 24.2234422,4.14116415 23.4369095,3.29703518 C22.4042044,2.18844221 21.0684925,1.39363484 19.3534506,0.865033501 C17.641675,0.337956449 15.5625461,0.0811139028 12.9973869,0.0781742044 C10.4315745,0.0805695142 8.35211893,0.337956449 6.64034338,0.865033501 C4.92541039,1.39363484 3.58958961,2.18844221 2.55688442,3.29703518 C1.76741206,4.14432161 1.15813233,5.13467337 0.745921273,6.24065327 C0.301373534,7.43308208 0.0762144054,8.78752094 0.0762144054,10.2661893 C0.0762144054,11.614531 0.352328308,16.1941457 3.90446399,18.5161809 C5.01109715,19.2395645 6.20831658,19.7641374 7.56471524,20.119732 C9.10871022,20.5245394 10.8854858,20.7226968 12.9966248,20.7256365 L12.9971692,20.7256365 C15.1086348,20.7228057 16.8854104,20.5246482 18.4294054,20.119732 C19.785804,19.7641374 20.9831323,19.2395645 22.0896566,18.5161809 C25.6417923,16.1940369 25.9179062,11.6144221 25.9179062,10.2661893 C25.9177973,8.79242044 25.6916583,7.43830821 25.2456951,6.24185092 Z M4.24546901,5.3779062 C4.46313546,4.99271213 4.71562508,4.62826408 4.99977387,4.28912898 C6.61247069,2.36438861 9.15345896,1.4661474 12.9973869,1.46222781 C16.8407705,1.46625628 19.3814322,2.36449749 20.9940201,4.28912898 C21.2781684,4.62826445 21.530658,4.99271246 21.748325,5.3779062 C21.7533333,5.38683417 21.7582328,5.3959799 21.7633501,5.40490787 L21.7373283,5.42145729 C21.5372111,5.54790061 21.3284925,5.67093244 21.1111725,5.79055276 C20.118861,6.33646566 19.0669933,6.75074539 18.0497487,7.15152429 C17.9245394,7.2008096 17.7998744,7.25002233 17.6757538,7.29916248 C15.7249916,8.07186767 14.2544891,9.35259631 13.3048576,11.1055276 C13.1845477,11.3277471 13.0894975,11.4268258 12.9966248,11.4268258 C12.9037521,11.4268258 12.8087018,11.3277471 12.688392,11.1055276 C11.7390871,9.35259631 10.2685846,8.07143216 8.31793132,7.29861809 C8.19526242,7.25005863 8.07186767,7.20142658 7.94774707,7.15272194 L7.94350084,7.1509799 C6.92625628,6.75030988 5.87482412,6.33603015 4.88207705,5.79000838 C4.66432161,5.67038805 4.45560302,5.54735623 4.25592127,5.4209129 L4.2298995,5.40436348 C4.23534338,5.3959799 4.24046064,5.38694305 4.24546901,5.3779062 Z M19.9804774,17.3634925 C18.394129,18.5638693 16.306072,19.0783166 12.9985846,19.0837605 L12.9968425,19.0837605 C9.68380235,19.0787521 7.59520101,18.5644137 6.01320771,17.3634925 C3.23268844,15.2537688 3.0921273,11.2700419 3.0921273,10.4929816 C3.0921273,9.72626466 3.14500558,9.01028476 3.25076214,8.34504188 C3.25250419,8.3341541 3.25413735,8.32326633 3.2558794,8.31237856 L3.28462312,8.32816583 C4.50318258,8.99809045 5.63474874,9.32047739 6.67649079,9.61716918 L6.91036013,9.68391122 C8.31488275,10.0867588 9.4328392,10.6173199 10.3273786,11.3068425 C10.8404845,11.7001799 11.2942318,12.1654047 11.6746315,12.6881742 C12.0774791,13.244866 12.3999749,13.8792965 12.6327554,14.5737186 C12.7440285,14.9053601 12.8426717,15.0286097 12.9969514,15.0286097 C13.1512312,15.0286097 13.2498744,14.9053601 13.3611474,14.5737186 C13.5941457,13.8792965 13.9164238,13.2454104 14.3192714,12.6881742 C14.6996711,12.1654047 15.1534184,11.7001799 15.6665243,11.3068425 C16.5610637,10.6174288 17.6786935,10.086541 19.0835427,9.68391122 L19.3174121,9.61716918 C20.3591541,9.32047739 21.4907203,8.99798157 22.7092797,8.32816583 L22.7380235,8.31237856 C22.7397655,8.32326633 22.7413987,8.3341541 22.7431407,8.34504188 C22.849115,9.01130095 22.9019933,9.72728085 22.9017755,10.4929816 C22.9018844,11.2711307 22.7611055,15.2594305 19.9804774,17.3636013 L19.9804774,17.3634925 Z"/>
      <path fill="url(#ic_pin_black-a)" d="M10.0733668,18.8778727 C7.35360134,18.498325 3.15015913,17.0627722 3.15015913,10.1582915 C3.15015913,6.03432998 4.49327471,1.48890285 13.0460553,1.48890285 C20.4163149,1.48890285 22.8879481,5.28394472 22.8879481,10.1434841 C22.8879481,11.9134003 22.5855946,13.324129 22.1277638,14.4510134 C20.8856868,17.5080821 18.3031072,18.4750251 16.0188526,18.8513065 C14.5054523,19.1016164 11.8458961,19.1249162 10.0733668,18.8778727 Z M24.6686432,10.2029313 C24.6686432,4.94043551 22.1912395,0.583040201 13.0746901,0.583040201 C3.49911223,0.583040201 1.48073702,5.86099665 1.48073702,10.2136013 C1.48073702,17.4995896 6.37054439,19.2675461 9.92659966,19.6879229 C11.7274372,19.9005611 14.3342965,19.8872781 16.0025209,19.6910804 C19.5271106,19.2786516 24.6686432,17.5228894 24.6686432,10.2029313 Z"/>
      <path fill="url(#ic_pin_black-b)" d="M10.0733668,18.8778727 C7.35360134,18.498325 3.1258794,17.0626633 3.15015913,10.1584003 C3.16518425,5.89170017 4.955134,1.48901173 13.0460553,1.48901173 C20.4300335,1.48901173 22.7797236,5.29973199 22.8879481,10.143593 C22.9268174,11.8856365 22.5939782,13.283191 22.14366,14.4049581 C20.8812228,17.5497822 18.4177554,18.4561893 16.0188526,18.8514154 C14.5054523,19.1016164 11.8458961,19.1249162 10.0733668,18.8778727 Z M24.6686432,10.2029313 C24.6686432,4.94043551 22.1912395,0.583040201 13.0746901,0.583040201 C3.49911223,0.583040201 1.48073702,5.86099665 1.48073702,10.2136013 C1.48073702,17.4995896 6.37054439,19.3200251 9.92659966,19.740402 C11.7274372,19.9530402 14.3278727,19.9696985 15.9960972,19.7730653 C19.5206868,19.361072 24.6686432,17.5228894 24.6686432,10.2029313 Z"/>
      <path fill="url(#ic_pin_black-c)" d="M13.0871022,0.737537688 L13.0871022,1.39755444 C5.67394472,1.41530151 3.12250419,5.33892797 3.12250419,10.3057119 C3.12250419,14.740737 5.15851759,17.1508543 7.32681742,18.159062 C9.81532663,19.3157789 12.7074456,19.1128308 11.3473451,19.6322864 C11.0153769,19.7589112 10.7386097,19.9673032 9.54171692,19.8273953 C6.01756281,19.4144221 1.5120938,17.6771692 1.5120938,10.3577554 C1.51242044,5.09874372 3.98688442,0.743634841 13.0871022,0.737537688 Z"/>
      <path fill="url(#ic_pin_black-d)" d="M25.9020101,10.4170938 C25.8693467,13.0884087 24.951072,16.1620268 22.7723199,17.9697236 C20.4867588,19.8660469 16.9762144,20.6886181 13.0059883,20.6886181 C9.07082077,20.6886181 5.67481575,20.0157538 3.10671692,17.8570352 C1.06700168,16.1416667 0.0762144054,13.0926549 0.0762144054,10.3832328 C0.0762144054,7.43166667 1.02595477,4.30197655 3.50259631,2.41175042 C5.87057789,0.604380235 9.72844221,0.0462730318 12.9922697,0.0462730318 C16.6396734,0.0462730318 20.1743886,0.642596315 22.5319179,2.52432998 C24.9809045,4.47988275 25.9391374,7.40499162 25.9020101,10.4170938 Z M24.6140955,10.3191039 C24.6140955,5.42820771 21.7601926,0.699430486 13.0212312,0.699430486 C3.44456449,0.699430486 1.42716918,5.97738693 1.42716918,10.3302094 C1.42716918,17.75567 6.50631491,19.4499162 10.0766332,19.8268509 C12.0051843,20.0309966 13.9365662,20.0537521 16.0438945,19.8194472 C18.2646734,19.5731658 24.614531,18.4940787 24.614531,10.3195394 L24.6140955,10.3191039 Z"/>
      <path fill="url(#ic_pin_black-e)" d="M1.6958794,7.90539363 C2.13966499,6.63642379 2.69679229,4.53551926 4.33072027,3.08526801 C6.17282245,1.45090452 9.41117253,0.87319933 10.3614573,0.763232831 C9.99029313,0.546130653 9.79529313,0.499966499 9.24894472,0.324237856 C6.58492462,0.714455611 4.32429648,1.4421943 2.71170854,3.13491625 C1.00994975,4.92127303 0.515644891,6.37947236 0.21220268,8.37269682 C0.76900335,8.16833333 0.993291457,8.11955611 1.6958794,7.90539363 Z" opacity=".74"/>
      <path fill="url(#ic_pin_black-f)" d="M12.9293384,1.13407035 C16.0177638,1.13407035 18.9596399,1.66103853 20.8039196,4.03174204 C17.9786516,0.533936348 8.43475712,0.451515913 5.28753769,4.03174204 C7.13247069,1.9280067 9.84004188,1.13407035 12.9293384,1.13407035 Z"/>
      <path fill="url(#ic_pin_black-g)" d="M24.9765494,14.8835846 C25.1377973,14.5251591 25.1271273,14.5511809 25.1960469,14.3248241 C25.2257705,14.2254188 25.1694807,14.3847069 25.1027387,14.5099162 C25.0168342,14.6742127 25.0349079,14.6615829 24.9033836,14.8474372 C24.7687018,15.0355779 24.7283082,15.0557203 24.4787605,15.2127219 C24.2794054,15.3389112 24.0311642,15.4205695 23.6367002,15.6373451 C23.5348995,15.6929816 23.4861223,15.7332663 23.2782747,16.0031742 C23.1287856,16.1966499 22.9686265,16.4187605 22.8863149,16.5137018 C22.6296901,16.8095226 21.9857873,17.3803685 21.6124456,17.7075461 C21.2869012,17.9917169 21.3590871,17.9863819 21.8193132,17.8273116 C22.2318509,17.6852261 22.8427638,17.4307789 23.2043467,17.2812898 C23.4323367,17.1874372 23.6200419,17.0284757 23.6953853,16.9398492 C24.1414573,16.4201759 24.6642881,15.5772446 24.9765494,14.8835846 Z"/>
      <path fill="url(#ic_pin_black-h)" d="M1.48073702,10.310067 C1.48073702,7.95634841 2.3140871,4.89046064 4.32059464,3.10965662 C6.16269682,1.47529313 9.31361809,0.863509213 10.263794,0.753433836 C9.89360972,0.536331658 9.69762982,0.490276382 9.15128141,0.314547739 C6.48769682,0.70498325 4.22663317,1.48073702 2.61306533,3.17324121 C0.766390285,5.11126466 0.0905862647,7.74327471 0.0462730318,9.92943049 C0.515536013,10.0661809 0.866557789,10.1637353 1.48073702,10.310067 Z" opacity=".9"/>
      <path fill="url(#ic_pin_black-i)" d="M19.6915159,1.89512563 C20.2387353,1.96981575 22.2065913,2.3971608 22.8731407,2.80251256 C23.5073534,3.18739531 23.4002178,3.20252931 23.4002178,3.20252931 L22.2187856,3.65132328 C22.2187856,3.65132328 21.3893551,2.72422948 19.6915159,1.89512563 Z" opacity=".2"/>
      <path fill="url(#ic_pin_black-j)" fill-opacity=".42" d="M6.23869347,1.8659464 C5.06738693,2.14369347 3.49355946,2.54447236 2.87197655,2.94873534 C2.57931323,3.1390536 1.77350921,4.19244556 1.77350921,4.19244556 L2.91541876,3.24139866 C3.47221943,3.095067 3.50085427,3.06567002 3.92613065,2.96332496 C4.39909548,2.84932998 4.66856784,2.8130737 5.18976549,2.46390285 C5.71096315,2.11473199 7.41032663,1.5878727 6.23869347,1.8659464 Z" opacity=".2"/>
      <path fill="url(#ic_pin_black-k)" d="M0.973693467,14.54933 C1.0521943,14.7147152 1.12851759,14.9617588 1.43185092,15.0964405 C1.66724456,15.2013987 1.85494975,15.2793551 2.09045226,15.3710302 C2.46825796,15.5184506 2.7578727,16.0220101 3.00382747,16.3470101 C3.24564489,16.6651508 4.01562814,17.3771022 4.39953099,17.6908878 C4.97331658,18.159062 6.03062814,18.7914238 6.83839196,19.1201256 C6.89675042,19.1434255 9.10304858,20.0617002 8.85872697,20.276407 C8.78762982,20.3390117 6.75738693,19.7632663 6.66288107,19.7351759 C4.9229062,19.2060302 3.08123953,18.1505695 1.8571273,16.3931742 C1.69163317,16.1551675 1.08137353,15.0465745 0.944514238,14.5981072 C0.858065327,14.314263 0.875050251,14.3378894 0.973693467,14.54933 Z"/>
      <path fill="url(#ic_pin_black-l)" d="M24.3668342,7.93402848 C23.9225042,6.66582077 23.3651591,4.56469849 21.7314489,3.11477387 C19.8888023,1.48073702 16.6508878,0.902705193 15.7001675,0.792738693 C16.0703518,0.575636516 16.2654606,0.529254606 16.8126801,0.353743719 C19.4772446,0.743634841 21.7383082,1.51949749 23.3514405,3.2118928 C24.7057705,4.63372697 25.2996985,6.29465662 25.6052094,7.65105528 C25.1373618,7.78769682 24.9803601,7.78769682 24.3668342,7.93402848 Z" opacity=".9"/>
      <path fill="url(#ic_pin_black-m)" d="M22.7772194,4.47389447 L21.7463652,5.27621441 L21.4013317,4.75469012 C21.6505528,4.41096315 22.0461055,3.80124791 22.0939028,3.73603015 C22.1417002,3.6708124 22.2617923,3.58207705 22.3604355,3.54941374 C22.4590787,3.51675042 22.8954606,3.29899497 23.2474623,3.16736181 L23.695603,3.69171692 L22.7772194,4.47389447 Z"/>
      <path fill="url(#ic_pin_black-n)" d="M3.23551926,4.53649916 L4.26637353,5.33914573 L4.64341709,4.74140704 C4.39474037,4.39768007 3.99973199,3.78796482 3.9508459,3.72252931 C3.9019598,3.6570938 3.78328308,3.56824958 3.68463987,3.53569514 C3.58599665,3.5031407 3.1151005,3.29616415 2.76407873,3.16431323 L2.35034338,3.6781072 L3.23551926,4.53649916 Z"/>
      <path fill="#1A1A1A" d="M3.29387772,8.29125628 C3.28862391,8.29120415 3.28378498,8.28839178 3.28113903,8.2838526 C3.27798157,8.27753769 2.94862647,7.67337521 2.80708543,7.34129816 C2.66554439,7.00922111 2.3600335,6.1608459 2.35687605,6.15235343 C2.35407203,6.14480862 2.35785786,6.13641186 2.36536851,6.13351759 C2.36905645,6.13201446 2.37320066,6.13209653 2.3768262,6.1337445 C2.38045174,6.13539247 2.38323854,6.13846086 2.38453099,6.14222781 C2.38768844,6.15072027 2.69254606,6.99811558 2.83419598,7.32964824 C2.9758459,7.6611809 3.30345896,8.26371022 3.30661642,8.27002513 C3.30864902,8.27343323 3.30918204,8.27753008 3.30808917,8.28134483 C3.30699629,8.28515957 3.30437479,8.28835269 3.3008459,8.2901675 C3.29864595,8.29109056 3.29625439,8.29146424 3.29387772,8.29125628 Z"/>
      <path fill="#1A1A1A" d="M3.24455611,8.29125628 C3.2393023,8.29120415 3.23446337,8.28839178 3.23181742,8.2838526 C3.22865997,8.27753769 2.89930486,7.67337521 2.75776382,7.34129816 C2.61622278,7.00922111 2.31071189,6.1608459 2.30755444,6.15235343 C2.30475042,6.14480862 2.30853625,6.13641186 2.3160469,6.13351759 C2.31973484,6.13201446 2.32387906,6.13209653 2.32750459,6.1337445 C2.33113013,6.13539247 2.33391693,6.13846086 2.33520938,6.14222781 C2.33836683,6.15072027 2.64322446,6.99811558 2.78487437,7.32964824 C2.92652429,7.6611809 3.25413735,8.26371022 3.25729481,8.27002513 C3.25932741,8.27343323 3.25986043,8.27753008 3.25876756,8.28134483 C3.25767468,8.28515957 3.25505319,8.28835269 3.25152429,8.2901675 C3.24932435,8.29109056 3.24693278,8.29146424 3.24455611,8.29125628 Z"/>
      <path fill="url(#ic_pin_black-o)" d="M4.65376047,4.74641541 C4.65376047,4.74641541 4.5040536,4.95829146 4.43339196,5.07424623 C4.36806533,5.18105528 4.24078727,5.41176717 4.24078727,5.41176717 C4.24078727,5.41176717 3.63020101,5.02144054 3.13230318,4.58222781 C2.67305695,4.17752931 2.44582915,3.91252094 2.27554439,3.70391122 C2.36776382,3.58730318 2.3678727,3.58741206 2.7529732,3.1771608 C2.7529732,3.1771608 2.73500838,3.22942211 2.81459799,3.32196817 C3.06273032,3.6111474 4.05221106,4.45146566 4.46855946,4.71963149 C4.57928811,4.79061977 4.65376047,4.74641541 4.65376047,4.74641541 Z"/>
      <path fill="url(#ic_pin_black-p)" d="M21.338727,4.73291457 C21.338727,4.73291457 21.4872362,4.94762144 21.5577889,5.06368509 C21.6231156,5.17049414 21.7646566,5.40850084 21.7646566,5.40850084 C21.7646566,5.40850084 22.3488945,5.03701005 22.8467923,4.59768844 C23.3060385,4.19298995 23.5560218,3.89477387 23.7263065,3.68616415 C23.6340871,3.56955611 23.4959213,3.42485762 23.2472446,3.16714405 C23.2472446,3.16714405 23.2570436,3.19436348 23.1775628,3.28690955 C22.9294305,3.57608878 21.9116415,4.45113903 21.495402,4.71941374 C21.3847822,4.79061977 21.338727,4.73291457 21.338727,4.73291457 Z"/>
      <path fill="url(#ic_pin_black-q)" d="M16.6582915,8.68071189 C16.6477678,8.68502427 16.6375146,8.68996908 16.6275879,8.69551926 C16.0124288,9.00244556 13.0503015,12.2516834 12.9771357,12.3248492 C12.9039698,12.3980151 9.73704355,9.83165829 9.67922948,9.72931323 C9.62141541,9.62696817 4.22913735,7.68535176 4.22913735,7.68535176 L2.92630653,7.56852596 C2.92630653,7.56852596 3.01340871,7.90463149 3.35092965,8.37324121 C4.70525963,9.22891122 7.17253769,9.67694305 8.775,10.3983668 C10.4648911,11.1594221 11.7442044,12.5120101 12.2366583,13.6639363 C12.715067,14.7830905 12.726608,15.0394975 13.0118677,15.0394975 C13.2971273,15.0394975 13.4461809,14.3535678 13.6493467,13.9194724 C14.6104104,11.8675628 16.2820101,10.4401759 19.8699665,9.47181742 C22.3850419,8.79318258 22.6882663,8.24650754 22.6882663,8.24650754 L23.2249246,6.97808208 C23.2249246,6.97808208 17.4176047,8.34667504 16.6582915,8.68071189 Z"/>
      <path fill="url(#ic_pin_black-r)" d="M2.72303183,7.21184255 C2.93882747,7.7780067 3.25566164,8.31248744 3.25566164,8.31248744 C3.25566164,8.31248744 3.98329146,8.72916248 4.78234506,8.99253769 C5.89159129,9.3590201 7.1798325,9.62642379 8.16049414,9.85092965 C9.33092965,10.1188777 10.0252429,10.4317923 10.8195059,10.966273 C12.0952261,11.8248827 12.3571859,12.4704188 12.7908459,13.1970687 C12.5469598,12.5832161 12.5295394,12.1705695 11.6789866,11.1145645 C10.4519347,9.59027638 9.66289782,9.2368593 7.90299832,8.58794807 C7.29687605,8.36420436 6.45372697,8.03136516 5.43354271,7.65159966 C4.41335846,7.27183417 3.10301508,6.59929648 2.31180067,6.06840871 C2.30167504,6.06154941 2.54490787,6.7468258 2.72303183,7.21184255 Z"/>
      <path fill="url(#ic_pin_black-s)" d="M14.5469347,9.36348409 C15.0441792,8.81844221 15.5167085,8.43225293 16.3115159,7.94622278 C17.7758124,7.05070352 19.7363735,6.68955611 21.7632412,5.40490787 C22.9960637,4.62349246 23.7268509,3.68616415 23.7268509,3.68616415 C23.7268509,3.68616415 23.7786767,4.10338358 23.7945729,4.59409548 C23.8053134,4.88448192 23.7943954,5.17526505 23.7619095,5.46402848 C23.7292462,5.75157454 23.6881993,5.90868509 23.6818844,5.91314908 C22.8790201,6.45176717 21.8781072,7.17253769 20.8440955,7.55850921 C19.8100838,7.94448074 18.8375879,8.28058626 18.2235176,8.50955611 C15.5700586,9.50306533 14.4161725,11.0080821 13.5497236,12.5598074 C13.1476382,13.28134 12.9977136,13.3735595 12.9977136,13.3655025 C12.9997822,13.3357789 13.0412647,11.6508961 13.0412647,11.4038526 C13.0603183,11.4038526 13.1407789,11.3494137 13.2196064,11.2124456 C13.5857621,10.5750754 13.9645477,10.0020519 14.5469347,9.36348409 Z"/>
      <path fill="url(#ic_pin_black-t)" d="M23.7059464,6.05762982 C22.9090704,6.58884422 21.5360134,7.22403685 20.5095142,7.60369347 C19.4830151,7.98335008 18.8773283,8.15134841 18.2673953,8.37454774 C16.5486516,9.00386097 15.4559548,9.66017588 14.1890536,11.2230067 C13.3322948,12.2791206 13.1982663,12.8452848 12.9978224,13.3159631 L12.9978224,15.0218593 C13.074799,15.0218593 13.1307621,14.9804858 13.1720268,14.915268 C13.2008794,14.870737 13.1842211,14.4470938 13.1842211,14.0848576 C13.1842211,13.8100503 13.1858543,13.7342714 13.3332747,13.4650168 C13.4477052,13.2556449 13.5791206,13.0202513 13.6677471,12.8824121 C14.3877554,11.7718593 15.7350084,10.9792295 17.0784506,10.3673367 C18.2719682,9.8238191 20.0149916,9.47453936 21.1674623,9.04773869 C21.9792546,8.74723618 22.7141792,8.35560302 22.7141792,8.35560302 C22.7141792,8.35560302 22.9696064,7.90267169 23.2188275,7.33313233 C23.4290704,6.85298157 23.7166164,6.05066164 23.7059464,6.05762982 Z"/>
      <path fill="url(#ic_pin_black-u)" d="M12.7822446,11.2313903 C12.8978727,11.439129 13.0020687,11.4121273 13.0435511,11.4121273 C13.0435511,11.7190536 13.0495394,13.3254355 13.0506281,13.3555946 C13.0517169,13.3640871 13.0166583,13.2522697 12.6151173,12.5301926 C11.0158124,9.66670854 9.47693467,9.1161139 8.03256281,8.57542714 C7.41958124,8.34678392 6.27897822,7.90746231 5.24442211,7.52203518 C4.209866,7.13660804 3.04596315,6.48149079 2.24070352,5.94635678 C2.19410385,5.91532663 2.25235343,5.74776382 2.21947236,5.46021776 C2.18452261,5.14958961 2.19181742,4.80466499 2.20085427,4.52931323 C2.21729481,4.03871022 2.31670017,3.680067 2.31670017,3.680067 C2.31670017,3.680067 3.00622278,4.62490787 4.23109715,5.40469012 C4.97876047,5.88124791 5.74221106,6.23085427 6.63468174,6.60332496 C7.76809883,7.07574539 8.6860469,7.35392797 9.79943049,8.03517588 C10.6922278,8.58141541 11.1581156,9.00179229 11.6375042,9.54302345 C12.2392714,10.221876 12.559263,10.8285427 12.7822446,11.2313903 Z"/>
      <path fill="#000" d="M10.5732245,8.58152429 C11.3049916,9.35183417 11.659933,9.75871022 12.1668677,10.7341457 C12.5152764,11.4031993 12.586809,11.4562228 13.0259129,13.1536265 L12.914531,11.4805025 C12.914531,11.4805025 12.3798325,10.5294556 11.999196,10.0512647 C11.3777219,9.27180905 11.2456533,9.11077889 10.5732245,8.58152429 Z"/>
      <polygon fill="#FFF" points="12.997 13.054 12.997 11.495 13.11 11.495"/>
      <path d="M12.7428308,11.0765662 C12.8574791,11.2883333 12.9388107,11.3656365 12.9968425,11.3656365 C13.0548744,11.3656365 13.136206,11.2883333 13.2508543,11.0765662 C14.026608,9.6439531 15.3689615,8.14655779 17.6528894,7.24178392 C18.9912144,6.71154941 20.404665,6.18567002 21.6802764,5.38498325 C21.4679778,5.01161044 21.2224443,4.65814129 20.9466583,4.32886935 C19.3802345,2.45911223 16.8522027,1.52766332 12.9972781,1.52363484 L12.9965159,1.52363484 C9.14170017,1.52766332 6.61345059,2.45911223 5.0470268,4.32854271 C4.77124126,4.65781501 4.52570777,5.01128412 4.31340871,5.38465662 C5.5890201,6.18501675 7.00268844,6.71122278 8.34079564,7.24145729 C10.6247236,8.14655779 11.9671859,9.64406198 12.7428308,11.0765662 Z"/>
      <path d="M13.4195059,14.5936432 C13.3106281,14.9167923 13.2025126,15.0905611 12.9968425,15.0905611 C12.7911725,15.0905611 12.6826214,14.9163568 12.5741792,14.5936432 C11.6122446,11.7262395 9.3370268,10.4438777 6.89304858,9.74346734 C5.79523451,9.42881072 4.59899497,9.11350084 3.30389447,8.40982412 C3.20470687,9.05078727 3.15353434,9.74357621 3.15353434,10.4929816 C3.15353434,11.9319095 3.53221106,15.4088107 6.05055276,17.3144975 C7.58757956,18.4776382 9.64896147,19.0169095 12.9969514,19.0219179 L12.9977136,19.0219179 C16.345268,19.0169095 18.4081742,18.4798157 19.9441122,17.3144975 C22.455268,15.4091374 22.8411307,11.9319095 22.8411307,10.4929816 C22.8411307,9.74357621 22.7899581,9.05078727 22.6907705,8.40982412 C21.3944724,9.11306533 20.1985595,9.42881072 19.1007454,9.74346734 C16.6567672,10.4438777 14.3815494,11.7261307 13.4195059,14.5936432 Z"/>
      <path fill="#000" d="M22.6901173 8.40982412C22.7893049 9.05078727 22.8404774 9.74357621 22.8404774 10.4929816 22.8404774 11.9319095 22.4546147 15.4088107 19.943459 17.3144975 18.4082831 18.4794891 16.3450503 19.0169095 12.9970603 19.0219179L12.9962982 19.0219179C9.64874372 19.0169095 7.58747069 18.4775293 6.0498995 17.3144975 3.53166667 15.4091374 3.15288107 11.9319095 3.15288107 10.4929816 3.15288107 9.74357621 3.2040536 9.05078727 3.30324121 8.40982412L3.27329983 8.39349246C3.17218872 9.0457426 3.12174204 9.74557231 3.1219598 10.4929816 3.1219598 11.2685176 3.2621943 15.2436432 6.03117253 17.338995 7.61164154 18.5350168 9.69436348 19.0475042 12.994665 19.0526214L12.9960804 19.0526214C16.3020436 19.0476131 18.3848744 18.5351256 19.9610972 17.3388861 22.7299665 15.2375461 22.8703099 11.2674288 22.8703099 10.4928727 22.8703099 9.74451982 22.8198632 9.04469012 22.7189698 8.39338358L22.6901173 8.40982412zM5.0470268 4.32854271C6.61334171 2.45911223 9.14159129 1.52766332 12.9965159 1.52363484L12.9972781 1.52363484C16.8520938 1.52766332 19.3803434 2.45911223 20.9467672 4.32854271 21.2225532 4.65781465 21.4680867 5.01128381 21.6803853 5.38465662L21.7071692 5.36767169C21.4937168 4.99327881 21.2471385 4.63877019 20.9703936 4.30840034 19.3640117 2.39117253 16.830536 1.49641541 12.9973869 1.49249581L12.9965159 1.49249581C9.16325796 1.49641541 6.62978224 2.39128141 5.02350921 4.30840034 4.74672664 4.63876581 4.50011185 4.99327456 4.28662479 5.36767169L4.31340871 5.38465662C4.52570777 5.01128412 4.77124126 4.65781501 5.0470268 4.32854271z"/>
      <path fill="#000" d="M19.3257956,9.64656616 L19.0919263,9.71330821 C17.6909966,10.1148492 16.5768509,10.643995 15.6852513,11.3310134 C15.1745844,11.7225715 14.7230014,12.1856686 14.3444221,12.7060302 C13.9433166,13.2602178 13.6223451,13.8918174 13.3903266,14.5832998 C13.2739363,14.9302931 13.1673451,15.0592044 12.9969514,15.0592044 C12.8265578,15.0592044 12.7199665,14.9301843 12.6035762,14.5832998 C12.3715578,13.8927973 12.0505863,13.2606533 11.6499162,12.7060302 C11.2712371,12.1856458 10.819543,11.7225475 10.3087605,11.3310134 C9.41737856,10.643995 8.30301508,10.1148492 6.90208543,9.71330821 L6.66821608,9.64656616 C5.63583752,9.35259631 4.51548576,9.03336683 3.30944724,8.37672529 C3.30770519,8.38761307 3.30607203,8.39850084 3.30443886,8.40938861 C4.60008375,9.11295645 5.79577889,9.42837521 6.89359296,9.74303183 C9.33757119,10.4434422 11.6127889,11.725804 12.5747236,14.5932077 C12.6836013,14.9163568 12.7917169,15.0901256 12.9973869,15.0901256 C13.203057,15.0901256 13.311608,14.9159213 13.4200503,14.5932077 C14.3819849,11.725804 16.6572027,10.4434422 19.1011809,9.74303183 C20.1985595,9.42881072 21.3944724,9.11306533 22.6901173,8.40982412 C22.6884841,8.39893635 22.686742,8.38804858 22.6851089,8.3771608 C21.4788526,9.03391122 20.358392,9.35259631 19.3257956,9.64656616 Z"/>
      <path fill="#000" d="M22.7011145 8.47387262L22.7982612 8.43619146C22.7926091 8.41107069 22.7869569 8.38594992 22.781658 8.36082915L22.6852178 8.39851031C22.6894569 8.42363108 22.6947558 8.44875185 22.7011145 8.47387262zM3.38721433 8.39851031L3.29077412 8.36082915C3.28512194 8.38594992 3.27946977 8.41107069 3.27417085 8.43619146L3.37131759 8.47387262C3.37626325 8.44875185 3.38156216 8.42363108 3.38721433 8.39851031z"/>
      <polygon fill="#000" points="4.385 5.412 4.312 5.368 4.271 5.437 4.344 5.481"/>
      <polygon fill="#000" points="21.721 5.481 21.793 5.437 21.753 5.368 21.68 5.412"/>
      <path d="M19.0922529,9.7138526 C17.6913233,10.1153936 16.5771776,10.6445394 15.6855779,11.3315578 C15.1748341,11.7229255 14.7231419,12.1858385 14.3444221,12.7060302 C13.9433166,13.2602178 13.6223451,13.8918174 13.3903266,14.5832998 C13.2739363,14.9302931 13.1673451,15.0592044 12.9969514,15.0592044 C12.8265578,15.0592044 12.7199665,14.9301843 12.6035762,14.5832998 C12.3715578,13.8927973 12.0505863,13.2606533 11.6499162,12.7060302 C11.2712371,12.1856458 10.819543,11.7225475 10.3087605,11.3310134 C9.41737856,10.643995 8.30301508,10.1148492 6.90208543,9.71330821 L6.66821608,9.64656616 C5.62734506,9.35009213 4.49697655,9.02803183 3.27961474,8.36039363 C3.17509213,9.02193467 3.1229397,9.73265215 3.12315745,10.4925461 C3.12315745,11.2680821 3.26339196,15.2432077 6.03237018,17.3385595 C7.61294807,18.5345812 9.69545226,19.0470687 12.9958626,19.0521859 L12.9973869,19.0521859 C16.3031323,19.0471776 18.3861809,18.5346901 19.9624037,17.3385595 C22.731273,15.2372194 22.8716164,11.2671022 22.8716164,10.4925461 C22.8716164,9.73170854 22.819464,9.02099107 22.7151591,8.36039363 C21.4977973,9.02803183 20.3674288,9.35009213 19.3265578,9.64656616 L19.0922529,9.7138526 Z"/>
      <path d="M12.9965159,1.49282245 C9.16325796,1.49674204 6.62978224,2.39160804 5.02350921,4.30872697 C4.74019631,4.64691875 4.48850516,5.01038759 4.27159966,5.39456449 C4.47164433,5.5210804 4.68032663,5.64411223 4.89764657,5.76365997 C5.88843384,6.30870184 6.93921273,6.72254606 7.95558626,7.12288945 C8.08079564,7.17217476 8.20549693,7.22138749 8.32969012,7.27052764 C10.2873116,8.04606365 11.7630402,9.33158291 12.715938,11.0913735 C12.8286265,11.2995477 12.9180151,11.3962312 12.9970603,11.3962312 C13.0761055,11.3962312 13.1654941,11.2992211 13.2781826,11.0913735 C14.2310804,9.33158291 15.706809,8.04606365 17.6644305,7.27052764 C17.7885511,7.22138749 17.9132524,7.17217476 18.0385343,7.12288945 C19.0549079,6.72265494 20.1057956,6.30870184 21.096474,5.76365997 C21.3142295,5.64403964 21.5229118,5.52100782 21.7225209,5.39456449 C21.5056149,5.01038792 21.2539238,4.64691912 20.9706114,4.30872697 C19.3640117,2.39160804 16.8302094,1.49674204 12.9965159,1.49282245 Z"/>
      <path fill="#666" fill-rule="nonzero" d="M4.88273032,5.79066164 C5.87504188,6.33657454 6.92690955,6.75085427 7.9441541,7.15163317 C8.06936348,7.20091848 8.19402848,7.25013121 8.31814908,7.29927136 C10.2688023,8.07230318 11.7393049,9.35292295 12.6886097,11.1061809 C12.8089196,11.3284003 12.9039698,11.4274791 12.9968425,11.4274791 C13.0897152,11.4274791 13.1847655,11.3284003 13.3050754,11.1061809 C14.2543802,9.35324958 15.7248827,8.07208543 17.675536,7.29927136 C17.7982049,7.25063931 17.9215997,7.20200726 18.0457203,7.15337521 L18.0500754,7.15174204 C19.0673199,6.75107203 20.1187521,6.33679229 21.1114992,5.79077052 C21.3292546,5.6711502 21.5379732,5.54811837 21.7376549,5.42167504 L21.7636767,5.40512563 C21.7586683,5.39619765 21.7537688,5.38705193 21.7486516,5.37812395 C21.5309846,4.99293021 21.278495,4.6284822 20.9943467,4.28934673 C19.3816499,2.36460637 16.8406616,1.46636516 12.9967337,1.46244556 C9.15335008,1.46647404 6.61268844,2.36471524 5.0001005,4.28934673 C4.71595219,4.6284822 4.46346261,4.99293021 4.24579564,5.37812395 C4.24067839,5.38705193 4.23588777,5.39619765 4.23077052,5.40512563 L4.25679229,5.42167504 C4.45676438,5.54804578 4.66541039,5.67104132 4.88273032,5.79066164 Z M5.02350921,4.30872697 C6.62989112,2.39149916 9.16336683,1.49674204 12.9965159,1.49282245 C16.8303183,1.49674204 19.3641206,2.39160804 20.9703936,4.30872697 C21.2537061,4.64691912 21.5053972,5.01038792 21.7223032,5.39456449 C21.5222585,5.5210804 21.3135762,5.64411223 21.0962563,5.76365997 C20.105469,6.30870184 19.0546901,6.72254606 18.0383166,7.12288945 C17.9131072,7.17217476 17.7884059,7.22138749 17.6642127,7.27052764 C15.7065913,8.04606365 14.2308626,9.33158291 13.2779648,11.0913735 C13.1652764,11.2995477 13.0758878,11.3962312 12.9968425,11.3962312 C12.9177973,11.3962312 12.8284087,11.2992211 12.7157203,11.0913735 C11.7628224,9.33158291 10.2870938,8.04606365 8.32947236,7.27052764 C8.20535176,7.22138749 8.08065047,7.17217476 7.95536851,7.12288945 C6.93899497,6.72265494 5.8881072,6.30870184 4.89742881,5.76365997 C4.67967337,5.64403964 4.47099107,5.52100782 4.27138191,5.39456449 C4.48832201,5.01038325 4.7400497,4.64691427 5.02340034,4.30872697 L5.02350921,4.30872697 Z"/>
      <path fill="#666" fill-rule="nonzero" d="M22.7433585,8.34504188 C22.7416164,8.3341541 22.7399832,8.32326633 22.7382412,8.31237856 L22.7094975,8.32816583 C21.490938,8.99809045 20.3593719,9.32047739 19.3176298,9.61716918 L19.0837605,9.68391122 C17.6792379,10.0867588 16.5612814,10.6173199 15.666742,11.3068425 C15.1536361,11.7001799 14.6998888,12.1654047 14.3194891,12.6881742 C13.9166415,13.244866 13.5941457,13.8792965 13.3613652,14.5737186 C13.2500921,14.9053601 13.1514489,15.0286097 12.9971692,15.0286097 C12.8428894,15.0286097 12.7442462,14.9053601 12.6329732,14.5737186 C12.3999749,13.8792965 12.0776968,13.2454104 11.6748492,12.6881742 C11.2944163,12.1653971 10.8406319,11.7001719 10.3274874,11.3068425 C9.43294807,10.6174288 8.31531826,10.086541 6.91046901,9.68391122 L6.67659966,9.61716918 C5.63485762,9.32047739 4.50329146,8.99798157 3.28473199,8.32816583 L3.25598827,8.31237856 C3.25424623,8.32326633 3.25261307,8.3341541 3.25087102,8.34504188 C3.14489671,9.01130095 3.09201843,9.72728085 3.09223618,10.4929816 C3.09223618,11.2711307 3.23312395,15.2594305 6.01364322,17.3631658 C7.59999162,18.5635427 9.68804858,19.0779899 12.995536,19.0834338 L12.9972781,19.0834338 C16.3103183,19.0784255 18.3989196,18.5640871 19.9809129,17.3631658 C22.7614322,15.2530067 22.9023199,11.2697152 22.9023199,10.4929816 C22.9020296,9.72626466 22.8490424,9.01028476 22.7433585,8.34504188 Z M19.9619682,17.338995 C18.3857454,18.5352345 16.3028057,19.0477219 12.9969514,19.0526214 L12.9954271,19.0526214 C9.69501675,19.0475042 7.61251256,18.5350168 6.03193467,17.338995 C3.26295645,15.2436432 3.12272194,11.2685176 3.12272194,10.4929816 C3.12272194,9.73214405 3.17487437,9.02142658 3.27917923,8.36082915 C4.49654104,9.02846734 5.62690955,9.35052764 6.66778057,9.64700168 L6.90164992,9.71374372 C8.30257956,10.1152848 9.41672529,10.6444305 10.308325,11.3314489 C10.8192308,11.7228179 11.2710715,12.1857695 11.6499162,12.7060302 C12.0510218,13.2602178 12.3719933,13.8918174 12.6040117,14.5832998 C12.720402,14.9302931 12.8269933,15.0592044 12.9973869,15.0592044 C13.1677806,15.0592044 13.2743719,14.9301843 13.3907621,14.5832998 C13.6227806,13.8918174 13.9437521,13.2602178 14.3448576,12.7060302 C14.7235367,12.1856458 15.1752308,11.7225475 15.6860134,11.3310134 C16.5773953,10.643995 17.6917588,10.1148492 19.0926884,9.71330821 L19.3257956,9.64656616 C20.3666667,9.35009213 21.4970352,9.02803183 22.714397,8.36039363 C22.8189196,9.02193467 22.871072,9.73265215 22.8708543,10.4925461 C22.871072,11.2675377 22.7308375,15.2376549 19.9619682,17.338995 Z"/>
      <path fill="#FFF" d="M2.26944724,3.73722781 C2.29231156,3.63455611 2.32061977,3.64947236 2.30211055,3.73352596 C2.24298995,4.00680905 2.21566164,4.53301508 2.22589615,5.06499162 C2.23319095,5.44606365 2.31147404,5.85435511 2.31147404,5.85435511 C2.26226131,5.85043551 2.19170854,5.86524288 2.17211055,5.93056951 C2.11157454,5.31595477 2.07858459,4.5920268 2.26944724,3.73722781 Z"/>
      <path fill="#CCC" d="M23.7571189,3.77217755 C23.7342546,3.66950586 23.7059464,3.68442211 23.7244556,3.76847571 C23.7835762,4.04175879 23.7994724,4.56328308 23.7892379,5.094933 C23.781943,5.47600503 23.6875461,5.89170017 23.6875461,5.89170017 C23.7367588,5.88778057 23.8035008,5.95572027 23.8234255,6.02017588 C23.8833082,5.40599665 23.9474372,4.62730318 23.7571189,3.77217755 Z"/>
      <path fill="#000" fill-rule="nonzero" d="M25.9794221,10.2661893 C25.9794221,11.9727387 25.5570854,16.323057 22.1232998,18.5677889 C20.0669263,19.9119933 17.4125963,20.781273 12.9973869,20.7872613 L12.9962982,20.7872613 C8.58108878,20.781273 5.92675879,19.9119933 3.87038526,18.5677889 C0.436599665,16.323057 0.0142629816,11.9727387 0.0142629816,10.2661893 C0.0142629816,7.18625628 0.984363484,4.89394472 2.51159129,3.25446399 C4.57754606,1.03738693 7.9119263,0.0207956449 12.9965159,0.0160050251 L12.9976047,0.0160050251 C18.0821943,0.0206867672 21.4163568,1.03727806 23.4825293,3.25446399 C25.0154188,4.90047739 25.9794221,7.17667504 25.9794221,10.2661893 Z M12.9968425,20.7564489 L12.9974958,20.7564489 C15.1112479,20.7536181 16.8906365,20.555134 18.4372446,20.1495645 C19.7969095,19.7930988 20.9971776,19.2676549 22.1064238,18.5419849 C25.6715159,16.2114573 25.9486097,11.6183417 25.9486097,10.2661893 C25.9486097,8.7838191 25.7225796,7.42578727 25.2768342,6.22976549 C24.8630988,5.11997487 24.2517504,4.12613903 23.4595561,3.2759129 C22.4229313,2.16340034 21.0828643,1.36521776 19.3625963,0.835527638 C17.6477722,0.307579564 15.5657035,0.0497571189 12.996407,0.047361809 C10.4280905,0.0497571189 8.34602178,0.307579564 6.63119765,0.835527638 C4.91092965,1.36521776 3.57086265,2.16383585 2.53423786,3.2759129 C1.74498325,4.12298157 1.13428811,5.11725293 0.719137353,6.23096315 C0.271867672,7.43090452 0.0451842546,8.78860972 0.0451842546,10.2661893 C0.0451842546,11.6184506 0.322278057,16.2114573 3.88737018,18.5419849 C4.99672529,19.2672194 6.1969933,19.7930988 7.55654941,20.1495645 C9.10261307,20.5550251 10.8824372,20.7536181 12.9962982,20.7564489 L12.9968425,20.7564489 Z"/>
      <path fill="url(#ic_pin_black-v)" fill-rule="nonzero" d="M12.996407,20.7564489 C10.8826549,20.7536181 9.10326633,20.555134 7.55665829,20.1495645 C6.1969933,19.7930988 4.99672529,19.2676549 3.88747906,18.5419849 C0.322386935,16.2114573 0.0452931323,11.6183417 0.0452931323,10.2661893 C0.0452931323,8.78860972 0.272085427,7.4310134 0.719246231,6.23096315 C1.13439698,5.11714405 1.74498325,4.12298157 2.53434673,3.2759129 C3.57097152,2.16340034 4.91103853,1.36521776 6.63130653,0.835527638 C8.34613065,0.307579564 10.4281993,0.0497571189 12.9965159,0.047361809 C15.5660302,0.0497571189 17.6478811,0.307579564 19.3627052,0.835527638 C21.0829732,1.36521776 22.4230402,2.16383585 23.459665,3.2759129 C24.2519682,4.12613903 24.8634255,5.11997487 25.276943,6.22976549 C25.7226884,7.42578727 25.9487186,8.7838191 25.9487186,10.2661893 C25.9487186,11.6184506 25.6716248,16.2109129 22.1065327,18.5419849 C20.9971776,19.2672194 19.7969095,19.7930988 18.4373534,20.1495645 C16.8912898,20.5550251 15.1114657,20.7536181 12.9976047,20.7564489 L12.9966248,20.7564489 L12.996407,20.7564489 Z M12.9973869,20.7256365 C15.108526,20.7228057 16.8853015,20.5246482 18.4292965,20.119732 C19.7856951,19.7641374 20.9830235,19.2395645 22.0895477,18.5161809 C25.6416834,16.1941457 25.9177973,11.6144221 25.9177973,10.2661893 C25.9177973,8.78752094 25.6924204,7.43308208 25.2479816,6.24054439 C24.8357705,5.13456449 24.2264908,4.14421273 23.4370184,3.2969263 C22.4042044,2.18844221 21.0684925,1.39363484 19.3535595,0.865033501 C17.6417839,0.337956449 15.5623283,0.0811139028 12.9965159,0.0781742044 C10.4313568,0.0805695142 8.35222781,0.337956449 6.64045226,0.865033501 C4.92541039,1.39309045 3.58969849,2.18844221 2.55688442,3.29703518 C1.77035176,4.14116415 1.16183417,5.13184255 0.748098827,6.24185092 C0.301700168,7.43841709 0.0759966499,8.79242044 0.0759966499,10.2662982 C0.0759966499,11.6146399 0.352110553,16.1942546 3.90424623,18.5162898 C5.0108794,19.2396734 6.20809883,19.7642462 7.56449749,20.1198409 C9.10849246,20.5246482 10.885268,20.7228057 12.9967337,20.7257454 L12.9972781,20.7257454 L12.9973869,20.7256365 Z"/>
      <path fill="#1A1A1A" d="M23.6763317 6.1701005C23.6791243 6.16252516 23.675284 6.15411539 23.6677303 6.15126466 23.6640408 6.14980182 23.6599125 6.1499175 23.6563106 6.15158464 23.6527088 6.15325179 23.6499491 6.15632426 23.6486767 6.16008375 23.6455193 6.16857621 23.3438191 7.01716918 23.2034757 7.34913735 23.0631323 7.68110553 22.7376968 8.28548576 22.7345394 8.29136516 22.7325146 8.29478687 22.7319978 8.29889448 22.7331119 8.3027111 22.7342259 8.30652773 22.7368712 8.30971233 22.7404188 8.31150754 22.7425854 8.31241319 22.7449375 8.31278654 22.7472781 8.31259631 22.7525319 8.31254418 22.7573708 8.30973182 22.7600168 8.30519263 22.7600168 8.30519263 23.0496315 7.79183417 23.228191 7.35969849 23.4067504 6.92756281 23.6763317 6.1701005 23.6763317 6.1701005zM2.32116415 6.1701005C2.31860522 6.16256048 2.32251543 6.15435386 2.32998325 6.15159129 2.33367281 6.15012846 2.33780108 6.15024413 2.34140293 6.15191128 2.34500479 6.15357842 2.34776448 6.15665089 2.34903685 6.16041039 2.3521943 6.16890285 2.65389447 7.01749581 2.79423786 7.34946399 2.93458124 7.68143216 3.26001675 8.2858124 3.2631742 8.29169179 3.26519895 8.29511351 3.26571576 8.29922111 3.26460172 8.30303773 3.26348767 8.30685436 3.26084233 8.31003896 3.25729481 8.31183417 3.25512818 8.31273982 3.25277609 8.31311317 3.25043551 8.31292295 3.2451817 8.31287082 3.24034277 8.31005845 3.23769682 8.30551926 3.23769682 8.30551926 2.94808208 7.7921608 2.76952261 7.36002513 2.59096315 6.92788945 2.32116415 6.1701005 2.32116415 6.1701005z"/>
      <path fill="url(#ic_pin_black-w)" d="M20.3398827,17.0679983 C20.5183333,16.9091457 20.4826214,16.9173116 20.2594221,17.1024037 C19.9428057,17.3651256 19.6697404,17.5850586 19.1177303,17.8907873 C18.9267588,17.989866 18.7439531,18.0986348 18.5387186,18.1821441 C16.7217672,18.9243635 15.4916667,19.0041709 13.3265243,19.0713484 C13.2714322,19.0730905 13.2164852,19.074651 13.1616834,19.0760302 C13.1068816,19.0760302 13.0518984,19.0760302 12.9967337,19.0760302 C11.2034087,19.0760302 9.31067839,18.9089028 7.76330821,18.3321776 C7.55567839,18.2549832 7.34761307,18.1530737 7.15359296,18.0599832 C6.73659129,17.8290536 6.38785595,17.6171776 6.03215243,17.3385595 C5.80350921,17.1597822 5.74286432,17.1377889 5.92610553,17.2910888 C5.79795645,17.199196 5.82060302,17.220536 5.99252094,17.378191 C7.35000838,18.619397 8.86798157,19.1179481 11.1526717,19.2757119 C11.779263,19.3311307 12.4483166,19.34866 13.1669095,19.3312395 C13.8855025,19.32634 14.553794,19.2876884 15.1783166,19.2132161 C17.4570184,18.9845729 18.9581156,18.4394221 20.2765159,17.1566248 C20.4432077,16.9941792 20.4650921,16.9721859 20.3398827,17.0679983 Z"/>
      <path fill="url(#ic_pin_black-x)" fill-rule="nonzero" d="M24.0814657,6.66407873 C24.0078643,6.44882747 23.9258794,6.23553601 23.8376884,6.03019263 C23.8074204,5.95985762 23.7524372,5.91946399 23.686675,5.91946399 C23.6514702,5.92024943 23.6173203,5.93163273 23.5886851,5.9521273 C21.9853518,7.04253769 20.306675,7.63428811 18.9576801,8.10975712 C17.7483752,8.5360134 16.6059213,8.93875209 15.854665,9.48041876 C15.3030905,9.8780402 14.7441122,10.4276549 14.1942797,11.1135846 C13.7991625,11.6063652 13.3858626,12.2925126 12.9966248,13.0951591 C12.6076047,12.2926214 12.1943049,11.606474 11.7989698,11.1135846 C11.2487018,10.4276549 10.6901591,9.87771357 10.1385846,9.48041876 C9.38732831,8.93875209 8.24487437,8.5360134 7.03556951,8.10975712 C5.68679229,7.63428811 4.00811558,7.04275544 2.40478224,5.9521273 C2.37614707,5.93163273 2.34199718,5.92024943 2.30679229,5.91946399 C2.24146566,5.91946399 2.1860469,5.95985762 2.15577889,6.03019263 C2.06758794,6.23553601 1.98560302,6.44871859 1.91200168,6.66407873 C1.52004188,7.81132328 1.32896147,9.09466499 1.32896147,10.5873786 C1.32896147,12.1589196 1.66495812,16.0429146 4.77766332,18.1618928 C5.74144891,18.8179899 6.82946399,19.2876884 8.10376884,19.5978811 C9.44296482,19.9237521 11.0293132,20.0848911 12.9534003,20.0904439 L13.0398492,20.0904439 C14.9639363,20.0848911 16.5506114,19.9236432 17.8894807,19.5978811 C19.1633501,19.2877973 20.2521273,18.8180988 21.2155863,18.1618928 C24.3282915,16.0429146 24.6642881,12.1589196 24.6642881,10.5873786 C24.6646147,9.09455611 24.473861,7.81121441 24.0814657,6.66407873 Z M21.1984925,18.1365243 C20.2378643,18.7905528 19.1531156,19.258727 17.8825126,19.5679397 C16.5388526,19.8945729 14.944665,20.0558208 13.0093635,20.0597404 L12.9846482,20.0597404 C11.0492379,20.0558208 9.45515913,19.8948995 8.11149916,19.5679397 C6.84089615,19.258727 5.7561474,18.7904439 4.79551926,18.1365243 C1.69500838,16.0257119 1.36020938,12.1540201 1.36020938,10.5873786 C1.36020938,9.0980402 1.55041876,7.81796482 1.94161642,6.67387772 C2.015,6.45938861 2.09676717,6.2468593 2.18463149,6.04238693 C2.20978224,5.98381072 2.25442211,5.95027638 2.30722781,5.95027638 C2.33619918,5.95090518 2.36431087,5.96023781 2.3879062,5.9770603 C3.99461474,7.06975712 5.67536013,7.66226968 7.02609715,8.13828308 C8.23333333,8.56377722 9.37350084,8.96575377 10.1213819,9.50491625 C10.7124791,9.93106365 11.2691709,10.5007119 11.7757789,11.1327471 C12.2194556,11.6861725 12.6414657,12.4214238 12.9972781,13.1629899 C13.3530905,12.4214238 13.7751005,11.6861725 14.2187772,11.1327471 C14.7253853,10.5012563 15.2819682,9.93106365 15.8731742,9.50491625 C16.6209464,8.96586265 17.7612228,8.5638861 18.9683501,8.13839196 C20.3184338,7.66226968 21.9997236,7.06975712 23.606541,5.97716918 C23.6301364,5.96034668 23.6582481,5.95101406 23.6872194,5.95038526 C23.7400251,5.95038526 23.7852094,5.9839196 23.8098157,6.04249581 C23.8976801,6.24707705 23.9794472,6.45960637 24.0528308,6.6739866 C24.4440285,7.81796482 24.6342379,9.0980402 24.6342379,10.5874874 C24.6336935,12.1540201 24.2990034,16.0258208 21.1984925,18.1365243 Z"/>
      <path fill="#B3B3B3" d="M3.92210218,3.70336683 C3.91271126,3.7034408 3.90367145,3.6998014 3.89695142,3.69324121 C3.86123804,3.65898248 3.82166833,3.6289855 3.77903685,3.6038526 C3.76800954,3.59736755 3.76067087,3.58607728 3.75922111,3.57336683 C3.75541039,3.54070352 3.73646566,3.54255444 3.83042714,3.45109715 L3.84131491,3.44020938 C3.97490787,3.30411223 4.14214405,3.14863484 4.30012563,3.01362647 C4.58367919,2.76889662 4.88384794,2.54410656 5.19847571,2.34087102 C5.81548576,1.9421608 6.51752931,1.60561977 7.2848995,1.34061139 C8.06163317,1.07233668 8.93200168,0.868082077 9.87183417,0.733509213 C10.8065494,0.599698492 11.8417588,0.530343384 12.9493719,0.527294807 L13.0451843,0.527294807 C14.153995,0.530234506 15.1900754,0.599589615 16.1256616,0.733509213 C17.0654941,0.868082077 17.9358626,1.07233668 18.7125963,1.34061139 C19.4799665,1.60572864 20.1824456,1.94226968 20.7990201,2.34087102 C21.1136511,2.54414186 21.4138199,2.76896834 21.6973702,3.01373534 C21.851541,3.14536851 22.0240034,3.30585427 22.1583585,3.44282245 C22.1610804,3.44554439 22.1656533,3.45000838 22.1715327,3.45556114 C22.2560218,3.5359129 22.2340285,3.54266332 22.2305444,3.57358459 C22.2291187,3.58656068 22.2216526,3.59810285 22.210402,3.60472362 C22.1680381,3.63138629 22.1290025,3.66300227 22.0941206,3.69890285 C22.0872444,3.70557563 22.0780064,3.70925518 22.0684255,3.70913735 C22.031407,3.70913735 22.0059296,3.63466499 21.9643384,3.58937186 C20.0655109,1.70241206 17.1328894,0.783266332 12.9986935,0.779237856 C8.86264657,0.783919598 5.93133166,1.70143216 4.03609715,3.58479899 C3.98046064,3.64457286 3.95661642,3.70336683 3.92210218,3.70336683 Z"/>
      <path fill="url(#ic_pin_black-y)" fill-rule="nonzero" d="M23.6876549,6.11892797 L23.6730653,6.08441374 L23.6420352,6.10542714 C23.0898074,6.47931323 22.4734506,6.81563652 21.5145645,7.26660804 C20.7250921,7.63788107 19.8596231,7.94426298 19.0228978,8.24051926 C17.8270938,8.66394472 16.6975963,9.06374372 15.9688777,9.59136516 C14.8509213,10.4 13.8087437,11.7350586 13.1088777,13.253794 C13.0582496,13.3635427 13.0353853,13.3918509 12.9972781,13.3918509 C12.9591709,13.3918509 12.9361977,13.3634338 12.8856784,13.253794 C12.1853769,11.7350586 11.1429816,10.4 10.0255695,9.59103853 C9.29685092,9.06341709 8.16735343,8.66350921 6.97154941,8.24019263 C6.13460637,7.94393635 5.26924623,7.63755444 4.47977387,7.26628141 C3.52045226,6.81574539 2.90409548,6.4789866 2.35175879,6.1051005 L2.32072864,6.0840871 L2.30613903,6.11860134 C1.76708543,7.38974874 1.50501675,8.84773032 1.50501675,10.5760553 C1.50501675,12.1215745 1.83360972,15.940134 4.87706868,18.0144724 C6.77578727,19.308593 9.27757956,19.8890201 12.9875879,19.896206 L13.0060972,19.896206 C16.7161055,19.8890201 19.2178978,19.3082663 21.1166164,18.0144724 C24.1599665,15.9396985 24.4887772,12.1214657 24.4887772,10.5760553 C24.4887772,8.84773032 24.2267085,7.38974874 23.6876549,6.11892797 Z M21.0818844,17.9635176 C19.1924204,19.2513233 16.698794,19.8283752 12.9970603,19.8345812 C9.29521776,19.8283752 6.80191792,19.2513233 4.91190955,17.9635176 C1.89273032,15.9057286 1.56675042,12.1117755 1.56675042,10.5760553 C1.56675042,8.87190117 1.82250419,7.43242881 2.34849246,6.17739531 C2.89560302,6.54474874 3.50912898,6.87835008 4.45320771,7.32224456 C5.24551089,7.69482412 6.11228643,8.00164154 6.95064489,8.29855109 C8.1420938,8.72034338 9.26745394,9.11883585 9.9889866,9.64123116 C11.0980151,10.4442044 12.1333333,11.7704439 12.8292797,13.2798157 C12.8791457,13.3880402 12.915402,13.463057 12.9968425,13.463057 C13.0782831,13.463057 13.1145394,13.3880402 13.1645142,13.2798157 C13.8604606,11.770335 14.89567,10.4440955 16.0048074,9.64123116 C16.72634,9.11861809 17.851809,8.72034338 19.043258,8.29855109 C19.8816164,8.00175042 20.7482831,7.694933 21.5405863,7.32235343 C22.484665,6.87845896 23.098191,6.54485762 23.6453015,6.17750419 C24.1712898,7.43275544 24.4270436,8.87211893 24.4270436,10.5761642 C24.4270436,12.1116667 24.1010637,15.9057286 21.0818844,17.9635176 Z" opacity=".9"/>
      <path fill="url(#ic_pin_black-z)" fill-rule="nonzero" d="M23.6876549,6.11892797 L23.6730653,6.08441374 L23.6420352,6.10542714 C23.0898074,6.47931323 22.4734506,6.81563652 21.5145645,7.26660804 C20.7250921,7.63788107 19.8596231,7.94426298 19.0228978,8.24051926 C17.8270938,8.66394472 16.6975963,9.06374372 15.9688777,9.59136516 C14.8509213,10.4 13.8087437,11.7350586 13.1088777,13.253794 C13.0582496,13.3635427 13.0353853,13.3918509 12.9972781,13.3918509 C12.9591709,13.3918509 12.9361977,13.3634338 12.8856784,13.253794 C12.1853769,11.7350586 11.1429816,10.4 10.0255695,9.59103853 C9.29685092,9.06341709 8.16735343,8.66350921 6.97154941,8.24019263 C6.13460637,7.94393635 5.26924623,7.63755444 4.47977387,7.26628141 C3.52045226,6.81574539 2.90409548,6.4789866 2.35175879,6.1051005 L2.32072864,6.0840871 L2.30613903,6.11860134 C1.76708543,7.38974874 1.50501675,8.84773032 1.50501675,10.5760553 C1.50501675,12.1215745 1.83360972,15.940134 4.87706868,18.0144724 C6.77578727,19.308593 9.27757956,19.8890201 12.9875879,19.896206 L13.0060972,19.896206 C16.7161055,19.8890201 19.2178978,19.3082663 21.1166164,18.0144724 C24.1599665,15.9396985 24.4887772,12.1214657 24.4887772,10.5760553 C24.4887772,8.84773032 24.2267085,7.38974874 23.6876549,6.11892797 Z M21.0818844,17.9635176 C19.1924204,19.2513233 16.698794,19.8283752 12.9970603,19.8345812 C9.29521776,19.8283752 6.80191792,19.2513233 4.91190955,17.9635176 C1.89273032,15.9057286 1.56675042,12.1117755 1.56675042,10.5760553 C1.56675042,8.87190117 1.82250419,7.43242881 2.34849246,6.17739531 C2.89560302,6.54474874 3.50912898,6.87835008 4.45320771,7.32224456 C5.24551089,7.69482412 6.11228643,8.00164154 6.95064489,8.29855109 C8.1420938,8.72034338 9.26745394,9.11883585 9.9889866,9.64123116 C11.0980151,10.4442044 12.1333333,11.7704439 12.8292797,13.2798157 C12.8791457,13.3880402 12.915402,13.463057 12.9968425,13.463057 C13.0782831,13.463057 13.1145394,13.3880402 13.1645142,13.2798157 C13.8604606,11.770335 14.89567,10.4440955 16.0048074,9.64123116 C16.72634,9.11861809 17.851809,8.72034338 19.043258,8.29855109 C19.8816164,8.00175042 20.7482831,7.694933 21.5405863,7.32235343 C22.484665,6.87845896 23.098191,6.54485762 23.6453015,6.17750419 C24.1712898,7.43275544 24.4270436,8.87211893 24.4270436,10.5761642 C24.4270436,12.1116667 24.1010637,15.9057286 21.0818844,17.9635176 Z"/>
      <path fill="#FFF" fill-rule="nonzero" d="M24.0522864,6.61551926 C23.9789028,6.40005025 23.8971357,6.18654104 23.8092714,5.98108878 C23.7841206,5.92229481 23.7394807,5.88865159 23.686675,5.88865159 C23.6576874,5.88928532 23.629567,5.89865881 23.6059966,5.91554439 C21.9992881,7.01292295 20.3185427,7.60804858 18.9678057,8.08623953 C17.7606784,8.51369347 16.620402,8.91730318 15.8726298,9.45875209 C15.2815327,9.88675042 14.7248409,10.4589028 14.2182328,11.09366 C13.7745561,11.6494807 13.3525461,12.3878894 12.9967337,13.1327219 C12.6409213,12.3879983 12.2189112,11.6494807 11.7752345,11.09366 C11.2686265,10.4589028 10.7120436,9.88675042 10.1208375,9.45875209 C9.37295645,8.91730318 8.23278894,8.51358459 7.02555276,8.08623953 C5.67546901,7.60804858 3.99428811,7.01303183 2.38736181,5.91565327 C2.36379149,5.89876768 2.33567102,5.8893942 2.30668342,5.88876047 C2.25387772,5.88876047 2.20869347,5.92251256 2.1840871,5.98119765 C2.09622278,6.18675879 2.01445561,6.40015913 1.94107203,6.61562814 C1.54987437,7.76461474 1.35966499,9.05024288 1.35966499,10.5461139 C1.35966499,12.1196147 1.69435511,16.0081826 4.79497487,18.1281407 C5.75560302,18.785 6.84035176,19.2552429 8.11095477,19.5653266 C9.45461474,19.8937018 11.0488023,20.0552764 12.9841039,20.0593049 L13.0088191,20.0593049 C14.9442295,20.0553853 16.5384171,19.8938107 17.8819682,19.5653266 C19.1526801,19.2546985 20.2373199,18.7844556 21.1979481,18.1281407 C24.2985678,16.0081826 24.633258,12.1196147 24.633258,10.5461139 C24.6336935,9.050134 24.4430486,7.76450586 24.0522864,6.61551926 Z M21.1148744,18.0118593 C19.215067,19.306742 16.7114238,19.8869514 12.9968425,19.8931575 C9.28237018,19.8869514 6.77861809,19.306742 4.87881072,18.0118593 C1.83654941,15.938392 1.50806533,12.1210302 1.50806533,10.5755109 C1.50806533,8.83401173 1.77438023,7.36612228 2.32214405,6.08822446 C2.8810134,6.46929648 3.50597152,6.81149916 4.47792295,7.26856784 C5.26750419,7.63984087 6.13286432,7.94633166 6.97002513,8.24258794 C8.16561139,8.66590452 9.29478224,9.06570352 10.0231742,9.59267169 C11.1401508,10.4013065 12.1822194,11.7359296 12.8823032,13.2542295 C12.9285762,13.3546147 12.9514405,13.3871692 12.9844305,13.3930486 L12.9844305,13.3941374 L13.0091457,13.3941374 L13.0091457,13.3930486 C13.041809,13.3871692 13.065,13.3546147 13.111273,13.2542295 C13.8113568,11.7359296 14.8533166,10.4016332 15.970402,9.59267169 C16.698794,9.06526801 17.8280737,8.66546901 19.02366,8.24258794 C19.860603,7.94622278 20.726072,7.63984087 21.5156533,7.26856784 C22.4877136,6.81128141 23.1126717,6.46940536 23.6714322,6.08822446 C24.219196,7.36612228 24.4855109,8.83401173 24.4855109,10.5755109 C24.4856198,12.1210302 24.1572446,15.938392 21.1148744,18.0118593 Z"/>
      <path fill="#FFF" d="M23.2284087,3.15157454 C23.0596482,3.22463149 22.5064405,3.4088526 22.2755109,3.48517588 L22.2690871,3.48735343 C22.2537544,3.49231523 22.2377319,3.49481416 22.2216164,3.49475712 C22.1895554,3.49612499 22.1582513,3.48477724 22.1345142,3.46318258 C22.0003769,3.32654104 21.8296566,3.1679062 21.6753769,3.03583752 C21.3929279,2.79198571 21.0939233,2.56799602 20.7805109,2.36547739 C20.1655695,1.96818258 19.4658124,1.63273032 18.7009464,1.36837521 C17.9260637,1.10075377 17.0575461,0.896934673 16.1196734,0.762579564 C15.1772278,0.627680067 14.1325461,0.558433836 13.0145896,0.556582915 L12.9782245,0.556582915 C11.8608124,0.558433836 10.8165662,0.627680067 9.87422948,0.762579564 C8.93635678,0.896825796 8.0678392,1.10064489 7.29295645,1.36837521 C6.5278727,1.63262144 5.82822446,1.9680737 5.21339196,2.36547739 C4.89998113,2.56795843 4.60097644,2.79191181 4.31852596,3.03572864 C4.16119765,3.17019263 3.99461474,3.32490787 3.86123953,3.46035176 C3.83436649,3.48497307 3.79966394,3.49931679 3.76324958,3.50085427 C3.74833893,3.50048357 3.73360474,3.49753673 3.71969849,3.49214405 L3.7128392,3.48985762 C3.48190955,3.41364322 2.93610553,3.2319263 2.76767169,3.1590871 L2.75678392,3.17215243 C2.80948074,3.19490787 2.91313233,3.25174204 3.03670854,3.3071608 L3.03801508,3.30770519 C3.28603853,3.4190871 3.59459799,3.55812395 3.65371859,3.57717755 C3.68469681,3.58797135 3.71444187,3.6020227 3.74245394,3.61909548 C3.78757843,3.64534855 3.82948884,3.67677222 3.86733668,3.71273032 C3.87847118,3.72347276 3.88877174,3.73504724 3.89814908,3.74735343 C3.92711055,3.78644054 4.52670017,4.59072027 4.64341709,4.75044389 L4.65430486,4.73607203 C4.64951424,4.7288861 4.15749581,3.99668342 4.00670017,3.77903685 C3.96151591,3.71371022 3.9689196,3.60864322 4.01257956,3.56128141 C5.91336683,1.67225293 8.85175879,0.751256281 12.9969514,0.747554439 C17.1402931,0.751691792 20.0824958,1.67660804 21.9846985,3.56748744 C22.0282496,3.61495812 22.0297739,3.71556114 21.9846985,3.78077889 C21.8448995,3.98263819 21.4213652,4.61075377 21.3384003,4.73411223 L21.3509213,4.75066164 L21.3610469,4.73683417 C21.4778727,4.57711055 22.0594975,3.78154104 22.088459,3.74245394 C22.0981575,3.72977919 22.1087842,3.71784239 22.1202513,3.70674204 C22.1570024,3.66919679 22.1979985,3.63605647 22.2424121,3.60798995 C22.2745079,3.58766474 22.3083155,3.57017803 22.3434506,3.55572864 C22.4025712,3.53613065 22.704598,3.39894472 22.9526214,3.28756281 C23.0766332,3.23181742 23.1947655,3.19044389 23.2476801,3.16779732 L23.2284087,3.15157454 Z"/>
      <path d="M6.90164992,9.7138526 C8.30257956,10.1153936 9.41672529,10.6445394 10.308325,11.3315578 C10.819223,11.7228935 11.2710634,12.1858081 11.6499162,12.7060302 C12.0510218,13.2602178 12.3719933,13.8918174 12.6040117,14.5832998 C12.720402,14.9302931 12.8269933,15.0592044 12.9973869,15.0592044 C13.1677806,15.0592044 13.2743719,14.9301843 13.3907621,14.5832998 C13.6227806,13.8918174 13.9437521,13.2602178 14.3448576,12.7060302 C14.7235367,12.1856458 15.1752308,11.7225475 15.6860134,11.3310134 C16.5773953,10.643995 17.6917588,10.1148492 19.0926884,9.71330821 L19.3257956,9.64656616 C20.3666667,9.35009213 21.4970352,9.02803183 22.714397,8.36039363 C22.8189196,9.02193467 22.871072,9.73265215 22.8708543,10.4925461 C22.8708543,11.2680821 22.7306198,15.2432077 19.9616415,17.3385595 C18.3810637,18.5345812 16.2985595,19.0470687 12.9981491,19.0521859 L12.9966248,19.0521859 C9.6908794,19.0471776 7.60783082,18.5346901 6.03160804,17.3385595 C3.26273869,15.2372194 3.12239531,11.2671022 3.12239531,10.4925461 C3.12239531,9.73170854 3.17454774,9.02099107 3.2788526,8.36039363 C4.49621441,9.02803183 5.62658291,9.35009213 6.66745394,9.64656616 L6.90164992,9.7138526 Z"/>
      <path d="M12.9973869,1.49282245 C16.8306449,1.49674204 19.3641206,2.39160804 20.9703936,4.30872697 C21.2537061,4.64691912 21.5053972,5.01038792 21.7223032,5.39456449 C21.5222585,5.5210804 21.3135762,5.64411223 21.0962563,5.76365997 C20.105469,6.30870184 19.0546901,6.72254606 18.0383166,7.12288945 C17.9131072,7.17217476 17.7884059,7.22138749 17.6642127,7.27052764 C15.7065913,8.04606365 14.2308626,9.33158291 13.2779648,11.0913735 C13.1652764,11.2995477 13.0758878,11.3962312 12.9968425,11.3962312 C12.9177973,11.3962312 12.8284087,11.2992211 12.7157203,11.0913735 C11.7628224,9.33158291 10.2870938,8.04606365 8.32947236,7.27052764 C8.20535176,7.22138749 8.08065047,7.17217476 7.95536851,7.12288945 C6.93899497,6.72265494 5.8881072,6.30870184 4.89742881,5.76365997 C4.67967337,5.64403964 4.47099107,5.52100782 4.27138191,5.39456449 C4.48828793,5.01038792 4.73997904,4.64691912 5.02329146,4.30872697 C6.62978224,2.39160804 9.16358459,1.49674204 12.9973869,1.49282245 Z"/>
      <path fill="#4D4D4D" fill-rule="nonzero" d="M21.7372194,5.42156616 L21.7632412,5.40501675 C21.7582328,5.39608878 21.7533333,5.38694305 21.7482161,5.37801508 C21.5305486,4.99282166 21.278059,4.62837369 20.9939112,4.28923786 C19.3812144,2.36449749 16.8402261,1.46625628 12.9972781,1.46233668 C9.15335008,1.46636516 6.61236181,2.36460637 4.99966499,4.28923786 C4.71551668,4.62837332 4.4630271,4.99282133 4.24536013,5.37801508 C4.24024288,5.38694305 4.23545226,5.39608878 4.23033501,5.40501675 L4.25635678,5.42156616 C4.45647404,5.54800949 4.66519263,5.67104132 4.88251256,5.79066164 C5.87482412,6.33657454 6.92669179,6.75085427 7.94393635,7.15163317 L7.94829146,7.15326633 C8.07204913,7.20204355 8.19544389,7.2506756 8.31847571,7.29916248 C10.269129,8.0721943 11.7396315,9.35281407 12.6889363,11.106072 C12.8092462,11.3282915 12.9042965,11.4273702 12.9971692,11.4273702 C13.0900419,11.4273702 13.1850921,11.3282915 13.305402,11.106072 C14.2547069,9.3531407 15.7252094,8.07197655 17.6758626,7.29916248 C17.7999107,7.25002233 17.9245757,7.2008096 18.0498576,7.15152429 C19.0671022,6.75085427 20.1185343,6.33657454 21.1112814,5.79055276 C21.3286739,5.67093244 21.5373199,5.54793691 21.7372194,5.42156616 Z M21.7223032,5.39456449 C21.5222585,5.5210804 21.3135762,5.64411223 21.0962563,5.76365997 C20.105469,6.30870184 19.0546901,6.72254606 18.0383166,7.12288945 C17.9131072,7.17217476 17.7884059,7.22138749 17.6642127,7.27052764 C15.7065913,8.04606365 14.2308626,9.33158291 13.2779648,11.0913735 C13.1652764,11.2995477 13.0758878,11.3962312 12.9968425,11.3962312 C12.9177973,11.3962312 12.8284087,11.2992211 12.7157203,11.0913735 C11.7628224,9.33158291 10.2870938,8.04606365 8.32947236,7.27052764 C8.20535176,7.22138749 8.08065047,7.17217476 7.95536851,7.12288945 C6.93899497,6.72265494 5.8881072,6.30870184 4.89742881,5.76365997 C4.67967337,5.64403964 4.47099107,5.52100782 4.27138191,5.39456449 C4.48828793,5.01038792 4.73997904,4.64691912 5.02329146,4.30872697 C6.62967337,2.39149916 9.16347571,1.49674204 12.9971692,1.49282245 C16.8304271,1.49674204 19.3639028,2.39160804 20.9701759,4.30872697 C21.2535638,4.64691015 21.505328,5.01037923 21.7223032,5.39456449 Z"/>
      <path fill="#4D4D4D" fill-rule="nonzero" d="M3.0921273,10.4929816 C3.0921273,11.2700419 3.23301508,15.2534422 6.01353434,17.3631658 C7.59552764,18.5637605 9.68412898,19.0780988 12.9971692,19.0834338 L12.9989112,19.0834338 C16.3063987,19.0783166 18.3944556,18.5639782 19.980804,17.3631658 C22.7614322,15.258995 22.9022111,11.2706951 22.9022111,10.4929816 C22.9022111,9.72626466 22.8493328,9.01028476 22.7435762,8.34504188 C22.7418342,8.3341541 22.740201,8.32326633 22.738459,8.31237856 L22.7097152,8.32816583 C21.4911558,8.99809045 20.3595896,9.32047739 19.3178476,9.61716918 L19.0839782,9.68391122 C17.6794556,10.0867588 16.5614992,10.6173199 15.6669598,11.3068425 C15.1538539,11.7001799 14.7001066,12.1654047 14.3197069,12.6881742 C13.9168593,13.244866 13.5943635,13.8792965 13.3615829,14.5737186 C13.2503099,14.9053601 13.1516667,15.0286097 12.9973869,15.0286097 C12.8431072,15.0286097 12.744464,14.9053601 12.633191,14.5737186 C12.4001926,13.8792965 12.0779146,13.2454104 11.675067,12.6881742 C11.2946673,12.1654047 10.84092,11.7001799 10.3278141,11.3068425 C9.43327471,10.6174288 8.31564489,10.086541 6.91079564,9.68391122 L6.6769263,9.61716918 C5.63518425,9.32047739 4.50361809,8.99798157 3.28505863,8.32816583 L3.25631491,8.31237856 C3.25457286,8.32326633 3.2529397,8.3341541 3.25119765,8.34504188 C3.14515075,9.01130095 3.0921273,9.72728085 3.0921273,10.4929816 Z M3.1229397,10.4929816 C3.1229397,9.73214405 3.17509213,9.02142658 3.27939698,8.36082915 C4.49675879,9.02846734 5.6271273,9.35052764 6.66799832,9.64700168 L6.90186767,9.71374372 C8.30279732,10.1152848 9.41694305,10.6444305 10.3085427,11.3314489 C10.8193714,11.7228339 11.2711381,12.1857848 11.6499162,12.7060302 C12.0510218,13.2602178 12.3719933,13.8918174 12.6040117,14.5832998 C12.720402,14.9302931 12.8269933,15.0592044 12.9973869,15.0592044 C13.1677806,15.0592044 13.2743719,14.9301843 13.3907621,14.5832998 C13.6227806,13.8918174 13.9437521,13.2602178 14.3448576,12.7060302 C14.7235367,12.1856458 15.1752308,11.7225475 15.6860134,11.3310134 C16.5773953,10.643995 17.6917588,10.1148492 19.0926884,9.71330821 L19.3257956,9.64656616 C20.3666667,9.35009213 21.4970352,9.02803183 22.714397,8.36039363 C22.8189196,9.02193467 22.871072,9.73265215 22.8708543,10.4925461 C22.8708543,11.2680821 22.7306198,15.2432077 19.9616415,17.3385595 C18.3810637,18.5345812 16.2985595,19.0470687 12.9981491,19.0521859 L12.9966248,19.0521859 C9.6908794,19.0471776 7.60783082,18.5346901 6.03160804,17.3385595 C3.26295645,15.2376549 3.12272194,11.2675377 3.12272194,10.4929816 L3.1229397,10.4929816 Z"/>
      <path fill="url(#ic_pin_black-A)" fill-rule="nonzero" d="M12.9970603,20.7564489 L12.996407,20.7564489 C10.8826549,20.7536181 9.10326633,20.555134 7.55665829,20.1495645 C6.1969933,19.7930988 4.99672529,19.2676549 3.88747906,18.5419849 C0.322386935,16.2114573 0.0452931323,11.6183417 0.0452931323,10.2661893 C0.0452931323,8.7838191 0.271323283,7.42578727 0.717068677,6.22976549 C1.13080402,5.11997487 1.74215243,4.12613903 2.53434673,3.2759129 C3.57097152,2.16340034 4.91103853,1.36521776 6.63130653,0.835527638 C8.34613065,0.307579564 10.4281993,0.0497571189 12.9974958,0.047361809 C15.5658124,0.0497571189 17.6478811,0.307579564 19.3627052,0.835527638 C21.0829732,1.36521776 22.4230402,2.16383585 23.459665,3.2759129 C24.2489196,4.12298157 24.8596147,5.11725293 25.2747655,6.23096315 C25.7220352,7.43090452 25.9487186,8.78860972 25.9487186,10.2661893 C25.9487186,11.6184506 25.6716248,16.2114573 22.1065327,18.5419849 C20.9971776,19.2672194 19.7969095,19.7930988 18.4373534,20.1495645 C16.8912898,20.5550251 15.1114657,20.7536181 12.9976047,20.7564489 L12.9970603,20.7564489 Z M12.9970603,20.7256365 C15.108526,20.7228057 16.8853015,20.5246482 18.4292965,20.119732 C19.7856951,19.7641374 20.9830235,19.2395645 22.0895477,18.5161809 C25.6416834,16.1940369 25.9177973,11.6144221 25.9177973,10.2661893 C25.9177973,8.79231156 25.6916583,7.43830821 25.2456951,6.24174204 C24.8319598,5.13173367 24.2234422,4.14105528 23.4369095,3.2969263 C22.4040955,2.18855109 21.0683836,1.39298157 19.3534506,0.864924623 C17.641675,0.337847571 15.5625461,0.0810050251 12.9973869,0.0780653266 C10.4315745,0.0804606365 8.35211893,0.337847571 6.64034338,0.864924623 C4.92541039,1.39363484 3.58958961,2.18844221 2.55688442,3.29703518 C1.76741206,4.14432161 1.15813233,5.13467337 0.745921273,6.24065327 C0.301373534,7.43308208 0.0762144054,8.78752094 0.0762144054,10.2661893 C0.0762144054,11.614531 0.352328308,16.1941457 3.90446399,18.5161809 C5.01109715,19.2395645 6.20831658,19.7641374 7.56471524,20.119732 C9.10871022,20.5245394 10.8854858,20.7226968 12.9966248,20.7256365 L12.9971692,20.7256365 L12.9970603,20.7256365 Z"/>
    </g>
  </g>
</svg>
